<svg xmlns="http://www.w3.org/2000/svg" width="348.47" height="302.997" viewBox="0 0 348.47 302.997"><defs><style>.a{fill:#fff;}.b{fill:#fce0cd;}.c{fill:#a98a75;}.d{fill:#efc0a0;}.e{fill:#645d5c;}.f{fill:#febe69;}.g{fill:#e29c49;}.h{fill:#d9d9d9;}.i{fill:#7a7473;}.j{fill:#efc1a1;}</style></defs><path class="a" d="M3.3,249.663a433.724,433.724,0,0,1,7.26-50.579c1.629-8.257,5.8-25.44,13.707-35.1,11.251-13.74,27.484-19.916,48.193-26.256,16.519,15.043,47.584,19.217,68.2,3.631,13.251,3.128,23.147,6.268,32.9,13.987a29.255,29.255,0,0,1,7.309,9.331c1.682,3.217,3.033,8.469,3.915,11.812l4.127,15.689a57.374,57.374,0,0,0-5.237,15.175c-3.234,18.419-6.2,45.211-7.652,65.65-10.288,0-27.736,0-27.759-.006.313-3.319,1.359-15.367,2.515-28.774q-8.91-.972-17.82-1.968c-4.416-.492-9.012-.96-13.2.516a29.722,29.722,0,0,0-7.1,4.14c-3.252,2.316-5.136,3.768-8.376,6.084l-1.386.99c2.09,11.38,4.613,27.3,5.563,36.581-40.4,8.5-68.755,11.881-79.35,9.044C18.054,296.647,10.634,288.5,6.14,280.377,1.279,271.59,2.281,258.205,3.3,249.663"/><path class="b" d="M64.063,231.037c7.652,5.131,16.56,11.364,19.1,13.006l4.595,2.847c-14.819,1.885-36.142,4.432-47.147,5.509-.177-.156-.285-.245-.285-.245-1.871-1.344-3.649-2.8-5.46-4.214-1.553-1.213-1.574-4.224-.778-5.68a4.423,4.423,0,0,1,5.225-2.333l1.174.366c-1.481-1.126-3.047-2.325-4.779-3.663a5.4,5.4,0,0,1-1.185-7c1.724-2.707,5.363-2.478,8.157-.867,1.1.638,2.272,1.369,3.467,2.159l-.448-.51a4.148,4.148,0,0,1-.889-3.335c.075-1.49,1.888-2.848,3.319-3.269a6.73,6.73,0,0,1,4.969.322C55.065,225.1,59.323,227.859,64.063,231.037Z"/><path class="c" d="M315.525,101c.392-11.189-.116-18.462-1.526-26.481a54.931,54.931,0,0,0-5.531-16.355C304.712,50.354,300.933,46,293.9,40.131a54.311,54.311,0,0,0-10.105-5.787c-5.865-2.449-12.524-3.654-20.151-4.114C240.5,28.353,217.944,45.2,212.9,67.053c-1.37,5.895-1.514,16.031-.5,20.781.471,2.2.889,4.393,1.664,6.909l-.167,28.9c-1,4.334-1.8,11.156-1.175,16.134.866,6.866,5.505,11.9,11.232,13.038l34.21,1.31,37.323,11.238a16.37,16.37,0,0,0,8.266-.03c5.539-1.473,10.7-4.9,12.811-10.223,1.9-4.8,1.8-12.709.933-17.733-1.469-8.5-1.987-28.27-1.974-36.373"/><path class="b" d="M283.608,175.5c-20.049,3.941-45.212,1.857-61.056-8.857,6.683-2.192,12.743-4.048,16.045-6.262a4.053,4.053,0,0,0,1.374-1.054,3.154,3.154,0,0,0,.341-1.106l1.221-6.847a37.978,37.978,0,0,1-11.957-10.456,49.969,49.969,0,0,1-9.011-18.127,7.111,7.111,0,0,1-6-1.672c-3.418-2.949-4.762-6.972-5.579-9.6-1.152-3.711-1.076-9.658.869-12.836a6.1,6.1,0,0,1,5.554-2.9,6.68,6.68,0,0,1,4.238,1.44.788.788,0,0,0,1-.035l5-4.248a30.521,30.521,0,0,0,6.951-7.885c3.09-4.969,4.6-10.3,6-16.42a.886.886,0,0,1,.372-.572c.5-.316,1.507-.955,2.534-1.568a.573.573,0,0,1,.861.394,61.343,61.343,0,0,0,4.447,13.84,24.217,24.217,0,0,0,3.287,5.339,2.32,2.32,0,0,0,1.54.818c5.663.556,34.907,3.425,48.886,4.638a2.888,2.888,0,0,1,2.575,2.209,33.993,33.993,0,0,1,.62,4.841.82.82,0,0,0,1.251.633,6.75,6.75,0,0,1,3.965-.983,6.1,6.1,0,0,1,5.4,3.184c1.776,3.275,1.542,9.218.2,12.864-.952,2.582-2.5,6.529-6.072,9.3a7.239,7.239,0,0,1-5.624,1.465l-.533-.1a42.579,42.579,0,0,1-2.057,5.163c-1.437,3.608-8.845,15.7-18.155,21.244a22.306,22.306,0,0,0,2.6,7.833c2.542,4.123,10.274,7.481,17.092,10.288A68.351,68.351,0,0,1,283.608,175.5Z"/><path class="d" d="M251.811,134.136a17.376,17.376,0,0,0,8.2,2.128c2.726.072,5.93-.3,8.2-1.974a2.458,2.458,0,0,0,.861-3.284,2.426,2.426,0,0,0-3.283-.861,6.339,6.339,0,0,1-.878.542c-.088.045-.178.085-.267.129-.356.175.024-.049.158-.064a4.9,4.9,0,0,0-.763.265c-.3.089-.6.165-.9.23-.152.032-.305.061-.459.088-.243.042-.385.054-.056.016a18.619,18.619,0,0,1-2.608.113c-.422-.011-.845-.034-1.266-.071-.23-.02-.461-.044-.69-.074.342.045.1.01-.1-.025a13.847,13.847,0,0,1-1.855-.449c-.259-.083-.51-.186-.767-.275-.285-.1.512.241.15.063-.107-.053-.217-.1-.324-.151-.314-.152-.619-.32-.922-.491a2.4,2.4,0,0,0-2.423,4.145Z"/><path class="d" d="M259.323,114.77c.293,1.252.569,2.52.746,3.8l-.086-.638c.043.32.089.64.133.961l-.086-.638a2.594,2.594,0,0,1,.009.647l.086-.638a1.437,1.437,0,0,1-.07.257l.242-.573a1,1,0,0,1-.1.164l.376-.486a.689.689,0,0,1-.088.091l.486-.375a1.771,1.771,0,0,1-.387.2l.574-.242a2.523,2.523,0,0,1-.487.138l.638-.085a2.137,2.137,0,0,1-.536,0l.638.086c-.217-.031-.428-.091-.644-.126a2.616,2.616,0,0,0-1.849.242,2.4,2.4,0,0,0-.861,3.284,2.323,2.323,0,0,0,1.434,1.1c.473.076.919.19,1.4.224a4.458,4.458,0,0,0,2.2-.521,3.074,3.074,0,0,0,1.641-2.045,5.3,5.3,0,0,0-.03-2.2l.086.638a45,45,0,0,0-.847-4.546,2.4,2.4,0,1,0-4.628,1.276Z"/><path class="e" d="M237.841,102.273c-.755,2.242-.437,7.455,3.835,8.01,5.662.113,6.127-6.167,4.3-9.173C244.478,98.649,239.916,97.522,237.841,102.273Z"/><path class="e" d="M283.176,103.456c.637,2.279.048,7.468-4.247,7.8-5.66-.182-5.8-6.478-3.815-9.385C276.737,99.49,281.352,98.6,283.176,103.456Z"/><path class="f" d="M348.47,285.353c-1.216-11.528-4.62-52.285-6.5-66.913a70.959,70.959,0,0,0-8.112-25.739c-6.583-11.587-18.952-18.184-31.286-23.659-19.777,10.816-58.694,12.175-80.192-2.518-4.721,2.16-9.476,4.215-14.162,6.473a47.09,47.09,0,0,0-11.315,7.98c-6.444,5.868-11.713,17.783-13.221,26.374-3.951,22.507-7.508,57.516-8.379,78.159Z"/><path class="b" d="M106.248,251.574c-.609.444-1.255.91-1.966,1.419l-1.386.99c1.588,8.646,3.426,19.912,4.634,28.9,1.318-.78,2.164-1.279,2.164-1.279,3.072-1.812,5.772-4.212,9.072-5.556a25.574,25.574,0,0,1,7.08-1.656c5.413-.493,15.208-1.033,22.421-1.393.312-3.315,1.359-15.367,2.518-28.775q-8.912-.972-17.823-1.968c-4.416-.492-9.012-.96-13.2.516a29.722,29.722,0,0,0-7.1,4.14C110.12,248.716,108.415,250,106.248,251.574Z"/><path class="b" d="M155.961,69.457a1,1,0,0,0,1.453.8,7.115,7.115,0,0,1,3.656-.73,6.351,6.351,0,0,1,5.6,3.351c1.829,3.422,1.548,9.61.125,13.4-1.008,2.683-2.65,6.785-6.383,9.643a7.539,7.539,0,0,1-5.866,1.491l-.556-.112a44.283,44.283,0,0,1-2.173,5.365c-1.53,3.772-9.411,16.46-19.229,22.119l-1.989,9.014,6.814,9.805c-20.36,12.79-48.844,8.468-64.6-5.545,4.064-1.551,8.962-3.442,9.126-3.489,3.09-1.151,4.147-3.688,4.769-6.413a44.819,44.819,0,0,0,.943-5.437,43.294,43.294,0,0,1-9.5-9.225,52.031,52.031,0,0,1-9.27-18.935,7.4,7.4,0,0,1-6.239-1.779c-3.541-3.093-4.917-7.291-5.75-10.033-1.178-3.872-1.061-10.065.985-13.363a6.348,6.348,0,0,1,5.8-2.984,7.131,7.131,0,0,1,3.465.884,1,1,0,0,0,1.509-.763c.61-7.528,5.457-35.5,43.809-35.5C150.146,31.019,155.269,61.783,155.961,69.457Z"/><path class="g" d="M205.476,218.44c-.03,2.917-.249,5.833-.313,8.75-.1,4.724.042,9.437.251,14.156.4,8.911.789,17.822,1.263,26.729.235,4.406.481,8.811.814,13.211a2.46,2.46,0,0,0,2.4,2.4,2.42,2.42,0,0,0,2.4-2.4c-.632-8.349-1.011-16.718-1.4-25.081-.425-9.052-1.06-18.14-.954-27.2.041-3.523.307-7.04.343-10.561.032-3.09-4.768-3.092-4.8,0Z"/><path class="g" d="M309.458,215.2c.857,17.653.225,35.336-.481,52.983-.2,4.932-.4,9.865-.586,14.8-.115,3.089,4.685,3.084,4.8,0,.657-17.668,1.6-35.338,1.466-53.024-.036-4.921-.16-9.841-.4-14.757-.149-3.075-4.95-3.093-4.8,0Z"/><path class="h" d="M135.6,142.65c8.159,1.853,16.5,3.694,24.165,7.133a59.1,59.1,0,0,1,10.158,5.806,27.685,27.685,0,0,1,8,8.71c2.316,3.949,3.4,8.435,4.553,12.826.786,2.984,5.417,1.718,4.628-1.276-1.091-4.14-2.136-8.4-4.083-12.24a30.8,30.8,0,0,0-8.364-10.436,68.938,68.938,0,0,0-22.4-11.234c-5.061-1.549-10.223-2.746-15.382-3.918-3.008-.683-4.292,3.943-1.276,4.629Z"/><path class="h" d="M71.121,139.75c13.955,12.317,34.611,16.6,52.542,12.2a51.665,51.665,0,0,0,14.961-6.276c2.617-1.629.21-5.783-2.423-4.144-14.828,9.231-34.455,9.463-50.156,2.214a47.359,47.359,0,0,1-11.53-7.384c-2.308-2.038-5.716,1.345-3.394,3.394Z"/><path class="i" d="M62.4,36.366A52.568,52.568,0,0,1,82.911,8.985,51.342,51.342,0,0,1,114.433.031a51.607,51.607,0,0,1,28.908,9.513l6.638,5.443c8.221,7.922,15.486,20.094,15.664,37.711A55.777,55.777,0,0,1,163,69.869a8.536,8.536,0,0,0-1.933-.345,6.966,6.966,0,0,0-4.434,1.2.978.978,0,0,1-1.189-.072l-6.142-5.2c-2.06-5.709-6.918-12.1-12.049-16.811a21.959,21.959,0,0,0-7.935-4.986,38.644,38.644,0,0,0-7.535-1.539,3.909,3.909,0,0,0-1.964.255c-5.849,2.4-13.381,6.8-17.863,9.1-1.126.579-2.441.168-2.527-1.181-.066-1.02-.093-2.354-.089-3.494a1.47,1.47,0,0,0-2-1.48c-6.609,3.2-16.155,11.716-21.59,17.395l-6.525,5.131a.981.981,0,0,1-1.214.011A6.974,6.974,0,0,0,63.681,66.4a8.326,8.326,0,0,0-2.144.27A57.783,57.783,0,0,1,59.95,49.3,56.658,56.658,0,0,1,62.4,36.366Z"/><path class="d" d="M103.877,106.643a17.99,17.99,0,0,0,8.48,2.247c2.824.091,6.138-.279,8.5-2a2.457,2.457,0,0,0,.861-3.284,2.425,2.425,0,0,0-3.283-.861,6.668,6.668,0,0,1-.918.558c-.092.046-.189.084-.278.133-.245.136.537-.2.139-.059-.264.095-.527.191-.8.271-.31.091-.624.168-.941.234-.159.032-.319.062-.479.088-.219.037-.424.052-.085.017a20.376,20.376,0,0,1-2.717.1c-.44-.014-.88-.04-1.318-.082-.023,0-.8-.1-.308-.027q-.273-.039-.545-.089a14.418,14.418,0,0,1-1.929-.479c-.269-.088-.531-.194-.8-.291-.286-.105.5.239.133.053-.11-.057-.225-.105-.337-.16-.325-.16-.642-.337-.957-.516a2.4,2.4,0,1,0-2.423,4.144Z"/><path class="d" d="M111.859,86.588c.293,1.286.565,2.587.745,3.9l-.086-.638c.043.321.084.642.131.962l-.085-.638a2.89,2.89,0,0,1,.015.749l.086-.638a1.533,1.533,0,0,1-.075.267l.242-.573a1.043,1.043,0,0,1-.1.17l.376-.486a.689.689,0,0,1-.092.095l.485-.376a1.89,1.89,0,0,1-.4.212l.573-.242a2.619,2.619,0,0,1-.508.14l.638-.085a2.265,2.265,0,0,1-.558,0l.638.086c-.226-.034-.445-.1-.67-.135a2.6,2.6,0,0,0-1.849.242,2.4,2.4,0,0,0-.861,3.284,2.34,2.34,0,0,0,1.434,1.1c.485.081.939.2,1.437.234a4.538,4.538,0,0,0,2.242-.522,3.106,3.106,0,0,0,1.667-2.068,5.416,5.416,0,0,0-.024-2.239l.085.638a46.777,46.777,0,0,0-.854-4.713,2.421,2.421,0,0,0-2.952-1.677,2.453,2.453,0,0,0-1.676,2.953Z"/><path class="e" d="M89.465,73.449c-.8,2.331-.5,7.762,3.944,8.367,5.9.154,6.42-6.384,4.534-9.527C96.4,69.717,91.656,68.515,89.465,73.449Z"/><path class="e" d="M136.673,74.966c.649,2.378,0,7.779-4.473,8.1-5.893-.225-6-6.783-3.914-9.8C129.992,70.8,134.8,69.9,136.673,74.966Z"/><path class="h" d="M48.1,194.145c-.3,6.1-.709,12.2-1.156,18.293a2.421,2.421,0,0,0,2.4,2.4,2.446,2.446,0,0,0,2.4-2.4c.447-6.093.853-12.191,1.156-18.293a2.4,2.4,0,1,0-4.8,0Z"/><path class="h" d="M152.251,199.653c-.793,7.993-1.4,16.008-2.091,24.01q-1.611,18.659-3.228,37.317c-.349,4-.688,8.011-1.065,12.014a2.417,2.417,0,0,0,2.4,2.4,2.452,2.452,0,0,0,2.4-2.4c.865-9.192,1.621-18.4,2.416-27.592q1.571-18.157,3.137-36.314c.273-3.145.519-6.294.831-9.435a2.416,2.416,0,0,0-2.4-2.4,2.454,2.454,0,0,0-2.4,2.4Z"/><path class="j" d="M39.279,242.366q4.888,3.715,9.83,7.359a2.416,2.416,0,0,0,1.85.242,2.4,2.4,0,0,0,.573-4.387q-4.933-3.656-9.831-7.359a2.4,2.4,0,0,0-1.849-.242,2.445,2.445,0,0,0-1.434,1.1,2.418,2.418,0,0,0-.242,1.849,2.824,2.824,0,0,0,1.1,1.435Z"/><path class="j" d="M59,237.479c-3.45-2.779-6.977-5.475-10.64-7.968a2.415,2.415,0,0,0-3.284.861,2.461,2.461,0,0,0,.861,3.284c1.772,1.206,3.509,2.461,5.222,3.749q.6.448,1.191.9c.123.093.244.187.367.281.273.209-.321-.249-.051-.039l.572.444q1.191.93,2.368,1.879a2.6,2.6,0,0,0,1.7.7,2.4,2.4,0,0,0,1.7-4.1Z"/><path class="h" d="M71.291,135.574c-18.55,5.706-39.1,12.642-50.71,29.337-5.41,7.781-8.453,17.271-10.738,26.385-2.378,9.483-4,19.212-5.468,28.873-1.6,10.517-2.61,21.1-3.722,31.671C-.353,261.4-.76,272.161,3.738,280.968c4.54,8.889,12.248,16.42,21.637,19.958,5.372,2.025,11.145,2.187,16.822,2.023a221.783,221.783,0,0,0,24.641-2.409c11.042-1.567,22.021-3.567,32.956-5.752q4.656-.932,9.3-1.909a2.4,2.4,0,0,0,1.762-2.315c-.9-8.735-2.276-17.431-3.712-26.092q-1.08-6.512-2.287-13c-.32-1.7-.614-3.413-1-5.1a4.266,4.266,0,0,0-2.124-2.979,5.282,5.282,0,0,0-3.371-.293l-1.659.226c-.132.018-.586.079-.061.009l-.413.055-1.183.157q-2.222.294-4.442.579-5.413.7-10.832,1.366-11.991,1.485-24,2.866c-6.551.75-13.111,1.547-19.687,2.045a2.46,2.46,0,0,0-2.4,2.4,2.42,2.42,0,0,0,2.4,2.4c13.137-.994,26.243-2.775,39.316-4.373,6.732-.823,13.463-1.662,20.186-2.555,1.347-.179,2.705-.327,4.046-.547.682-.111.109-.116-.309-.214-.219-.05-.117-.537-.126.012a2.869,2.869,0,0,0,.1.492q.272,1.335.53,2.672c.77,3.979,1.48,7.97,2.16,11.966,1.576,9.261,3.095,18.562,4.06,27.909l1.762-2.314c-19.683,4.135-39.644,8.157-59.74,9.594-3.188.228-6.387.376-9.584.344-1.318-.013-2.636-.058-3.95-.154-.567-.042-1.133-.093-1.7-.157-.264-.029-.746-.1-.195-.018-.315-.044-.63-.091-.944-.144-8.293-1.414-15.513-6.893-20.362-13.6a31.133,31.133,0,0,1-5.609-12.048,56.084,56.084,0,0,1-.762-14.326c.26-4.976.888-9.942,1.393-14.9.51-5,1.064-10.006,1.721-14.994,1.318-10.008,3.058-19.991,5.135-29.869,1.764-8.388,4.113-16.851,7.94-24.551a48.869,48.869,0,0,1,17.566-19.118c8.056-5.229,17.1-8.678,26.175-11.678,2.544-.841,5.1-1.644,7.66-2.432,2.944-.905,1.688-5.54-1.276-4.628Z"/></svg>