<svg width="142" height="124" viewBox="0 0 142 124" fill="none" xmlns="http://www.w3.org/2000/svg">
<g clip-path="url(#clip0_444_167)">
<path d="M85.1367 29.4401C85.4098 29.1898 85.73 28.9957 86.0789 28.869C86.4279 28.7423 86.7986 28.6856 87.1697 28.702C87.6417 28.6867 88.109 28.7989 88.5218 29.0269C88.9346 29.2548 89.2774 29.5899 89.5136 29.9963C90.3102 31.369 90.2765 33.8988 89.7434 35.4638C89.365 36.5723 88.7446 38.2681 87.2493 39.4839C86.8877 39.787 86.4597 40.0016 85.9996 40.1105C85.5394 40.2194 85.06 40.2195 84.5998 40.1109C83.7969 42.9267 82.4245 45.55 80.5665 47.8205C79.3763 49.3341 77.906 50.6077 76.2348 51.5727C76.2348 53.2404 76.2348 54.3443 76.2348 54.3443C76.2045 54.8514 76.2661 55.3598 76.4167 55.8452C76.633 56.4654 77.0137 57.016 77.5186 57.4391C78.6377 58.3352 79.7882 58.7634 81.2053 59.2933L82.2696 59.712L79.1337 61.6028C75.4408 63.4125 71.3771 64.3497 67.2597 64.3412C63.1423 64.3328 59.0825 63.3789 55.3972 61.5541L52.1681 59.8118L53.4906 59.2948C54.9077 58.7649 56.0567 58.3367 57.1773 57.4406C57.682 57.0174 58.0625 56.4668 58.2788 55.8468C58.4297 55.3614 58.4915 54.853 58.4611 54.3458C58.4611 54.3458 58.4611 53.4596 58.4611 51.9922C56.6006 50.9214 54.9641 49.5057 53.6404 47.822C51.7874 45.5582 50.4175 42.9433 49.614 40.1364C49.1656 40.2255 48.7029 40.2132 48.26 40.1005C47.8171 39.9879 47.4053 39.7777 47.0552 39.4855C45.5615 38.2696 44.9395 36.5738 44.5611 35.4653C44.0249 33.9004 43.9927 31.3705 44.7909 29.9978C45.0271 29.5914 45.3699 29.2563 45.7827 29.0284C46.1955 28.8004 46.6628 28.6882 47.1348 28.7036C47.506 28.6873 47.8767 28.7443 48.2255 28.8713C48.5744 28.9982 48.8945 29.1926 49.1674 29.4432C49.1674 29.4432 44.3619 11.6445 67.1494 11.6445C89.9368 11.6445 85.1367 29.4401 85.1367 29.4401Z" fill="#FCE0CD"/>
<path d="M30.8273 115.373C28.8644 114.423 27.2193 112.93 26.0896 111.074C23.401 106.563 21.1107 95.041 18.8939 88.9793L34.1049 70.3009L34.7526 69.5061C35.9498 67.7672 38.1229 66.0143 39.8648 64.9153C43.7671 62.4562 48.329 61.1399 52.3355 59.5765C55.4703 62.1966 61.267 64.3211 67.3106 64.3386C71.4083 64.3259 75.4496 63.3895 79.1306 61.6001L82.5994 59.6115C85.1605 60.3702 88.8453 61.8068 90.6231 62.5544C93.1401 63.5926 95.461 65.0485 97.4868 66.8601C99.8832 68.9785 101.329 71.7022 102.531 74.9302C102.355 77.138 102.439 79.7265 103.167 81.4087C103.605 82.4293 103.195 83.7661 103 84.2842C103.295 84.5082 103.616 84.694 103.958 84.8373C107.151 86.3177 108.916 86.7597 112.299 87.7353L115.959 88.9786C113.741 95.0403 111.452 106.562 108.764 111.073C107.986 112.348 106.962 113.457 105.751 114.337C104.54 115.216 103.166 115.848 101.707 116.197C98.8192 116.863 94.974 115.366 93.2846 112.471L92.6216 111.655C92.5711 115.74 92.442 119.56 92.4022 123.015C92.3961 123.13 92.362 123.243 92.3026 123.342C92.181 123.437 92.0317 123.489 91.8774 123.491C87.9518 123.491 44.7112 123.536 42.846 123.529C42.7615 123.533 42.6773 123.516 42.6014 123.479C42.5256 123.441 42.4608 123.385 42.4133 123.316C42.3698 123.088 42.3525 122.856 42.3616 122.625C42.3233 119.202 42.2769 115.346 42.2275 111.341L41.5684 112.471C39.879 115.366 36.0337 116.863 33.1455 116.197C32.3439 116.011 31.5661 115.734 30.8273 115.373Z" fill="white"/>
<path d="M92.4018 123.014C92.3958 123.13 92.3616 123.242 92.3022 123.341C92.1806 123.436 92.0313 123.488 91.8771 123.49C87.9514 123.49 44.7112 123.536 42.846 123.528C42.7615 123.533 42.6773 123.515 42.6014 123.478C42.5256 123.441 42.4608 123.384 42.4133 123.315C42.3695 123.088 42.3528 122.857 42.3635 122.626C42.306 117.928 42.2409 112.413 42.172 106.821C42.6668 102.843 45.1 82.5115 45.776 76.8053C45.8487 73.6306 46.0019 67.2963 46.0364 62.2411V61.9214C47.6296 61.2971 49.2306 60.7375 50.774 60.1665V60.6652C50.7549 65.1037 50.64 73.0977 50.64 76.7444C54.2133 76.7444 74.6997 77.0071 83.4742 76.8282C83.4512 71.83 83.5431 64.9743 83.4818 59.8848C85.1746 60.4292 87.1586 61.1677 88.7518 61.7958C88.7595 61.8909 88.7633 61.948 88.7633 61.948C89.0467 69.6717 89.0735 73.0329 89.3646 79.3063C89.7185 83.0927 92.7043 105.222 92.7043 105.222C92.6201 111.552 92.5473 117.871 92.486 123.117" fill="#74C66D"/>
<path d="M35.4305 70.1376C36.3657 68.8225 37.5163 67.6728 38.8345 66.7364C40.2826 65.6702 41.8361 64.7532 43.4711 63.9998C43.6799 63.8761 43.8315 63.6757 43.8932 63.442C43.9549 63.2082 43.9217 62.9598 43.8008 62.7501C43.6743 62.5448 43.4728 62.396 43.2385 62.3349C43.0041 62.2738 42.7551 62.3052 42.5435 62.4223C40.826 63.2167 39.198 64.1897 37.6867 65.3249C36.1972 66.4012 34.898 67.716 33.8422 69.2157C33.1888 70.2001 34.7802 71.1163 35.4297 70.1376H35.4305Z" fill="#D9D9D9"/>
<path d="M40.8177 79.9329C40.9372 84.9877 41.0146 90.0433 41.0896 95.0989C41.1813 101.25 41.2632 107.401 41.3355 113.553C41.3741 116.741 41.4116 119.929 41.4481 123.118C41.4615 124.293 43.2999 124.298 43.2865 123.118C43.2191 117.246 43.1477 111.375 43.0724 105.504C42.9958 99.5794 42.9085 93.6553 42.8104 87.7311C42.7655 85.1314 42.7144 82.532 42.6572 79.9329C42.6293 78.7589 40.7909 78.7547 40.8188 79.9329H40.8177Z" fill="#D9D9D9"/>
<path d="M87.8265 15.0499C86.9353 12.3434 85.4757 9.94901 83.3543 8.26306L80.9651 5.77085C78.2509 2.21622 73.8414 0.289297 67.5423 0.0148391C59.3462 -0.260761 53.2983 3.38409 50.6208 6.77847L51.17 7.34223C45.6124 12.1386 43.589 20.7142 46.2846 28.8292C46.5599 28.7517 46.8438 28.7085 47.1298 28.7005C47.501 28.6843 47.8717 28.7413 48.2205 28.8682C48.5694 28.9952 48.8895 29.1896 49.1624 29.4401L52.0375 27.0419C54.1949 24.6525 58.0027 21.0511 60.6748 19.6571C60.9881 19.4934 61.3906 19.7146 61.5174 20.2349C61.6215 20.6417 61.6493 21.0641 61.5994 21.4808C61.5774 21.5991 61.5891 21.7211 61.633 21.8331C61.6769 21.9452 61.7513 22.0428 61.848 22.1152C61.9446 22.1875 62.0596 22.2317 62.1801 22.2427C62.3006 22.2537 62.4218 22.2311 62.5301 22.1774C64.4374 21.1245 67.8365 19.0046 70.2466 17.9951L73.8208 18.4313C75.0273 18.9272 76.1404 19.623 77.1126 20.4892C79.2823 22.3446 81.3638 24.8897 82.283 27.1935L85.1363 29.4394C85.4095 29.1891 85.7298 28.9951 86.0788 28.8685C86.4278 28.742 86.7985 28.6854 87.1697 28.702C87.4924 28.7102 87.8123 28.7646 88.1195 28.8634C89.2229 24.5212 89.2532 19.383 87.8265 15.0499Z" fill="#7A7473"/>
<path d="M63.8089 44.4345C64.8989 44.9947 66.1129 45.274 67.3397 45.2468C68.6107 45.3 69.8634 44.9325 70.9016 44.2019C71.0727 44.0299 71.1688 43.7978 71.1688 43.5559C71.1688 43.314 71.0727 43.0819 70.9016 42.9099C70.7263 42.7441 70.4936 42.6517 70.2517 42.6517C70.0097 42.6517 69.777 42.7441 69.6017 42.9099C69.8805 42.6941 69.6645 42.8589 69.5929 42.9046C69.5213 42.9503 69.4489 42.9914 69.3746 43.0302C69.3363 43.0504 69.298 43.0683 69.2578 43.0881C69.1084 43.1642 69.2961 43.0721 69.2961 43.0759C69.199 43.1206 69.0983 43.157 68.995 43.1847C68.7198 43.2707 68.438 43.3344 68.1525 43.3751C68.2884 43.3549 68.1283 43.3751 68.0728 43.3819C67.9901 43.39 67.9073 43.3968 67.8246 43.4021C67.6251 43.415 67.4255 43.42 67.2256 43.4188C67.0469 43.4188 66.8681 43.4125 66.6894 43.3998C66.6075 43.3941 66.5255 43.3876 66.4439 43.3793C66.4343 43.3793 66.1375 43.337 66.326 43.3667C66.06 43.3263 65.7971 43.2683 65.5389 43.1931C65.4286 43.1604 65.321 43.1208 65.2122 43.0839C64.9774 43.0043 65.3478 43.1535 65.1356 43.0542C65.0004 42.991 64.8675 42.9251 64.7354 42.8558C64.5237 42.7388 64.2747 42.7075 64.0404 42.7686C63.8061 42.8296 63.6046 42.9783 63.478 43.1836C63.3575 43.3934 63.3246 43.6418 63.3862 43.8755C63.4479 44.1092 63.5992 44.3096 63.8078 44.4337L63.8089 44.4345Z" fill="#EFC0A0"/>
<path d="M66.8709 36.168C67.0335 36.7513 67.1637 37.3432 67.2608 37.9407L67.2279 37.6979C67.2394 37.7789 67.2416 37.8611 67.2344 37.9426L67.2673 37.6998C67.2619 37.7372 67.2528 37.7741 67.2401 37.8098L67.3328 37.5913C67.3224 37.6161 67.3096 37.6398 67.2945 37.6621L67.4385 37.4775C67.421 37.4985 67.4014 37.5176 67.3799 37.5346L67.5661 37.3914C67.5208 37.4195 67.4736 37.4443 67.4247 37.4657L67.6446 37.3739C67.5682 37.4061 67.4882 37.4293 67.4064 37.4428L67.6507 37.4101C67.5764 37.4188 67.5013 37.4188 67.427 37.4101L67.6714 37.4428C67.5871 37.431 67.5048 37.4109 67.4201 37.3994C67.3016 37.3616 67.1751 37.3559 67.0536 37.3831C66.9321 37.3886 66.8142 37.4261 66.712 37.4916C66.6077 37.5521 66.5165 37.6325 66.4435 37.7281C66.3705 37.8237 66.3171 37.9326 66.2865 38.0487C66.2559 38.1648 66.2486 38.2857 66.265 38.4046C66.2814 38.5235 66.3213 38.6381 66.3822 38.7417C66.4406 38.8447 66.5193 38.9349 66.6137 39.0069C66.7081 39.0788 66.8162 39.1311 66.9314 39.1604C67.1229 39.1859 67.3102 39.2346 67.5059 39.243C67.8003 39.2449 68.0908 39.1762 68.3527 39.0428C68.5185 38.9681 68.6653 38.8575 68.7826 38.7192C68.8999 38.5809 68.9846 38.4184 69.0306 38.2434C69.0905 37.9586 69.0875 37.6643 69.0218 37.3808C68.9249 36.8098 68.792 36.2434 68.6442 35.6834C68.6121 35.5677 68.5574 35.4595 68.4832 35.3648C68.409 35.2701 68.3168 35.1909 68.2118 35.1317C68.1068 35.0724 67.9912 35.0343 67.8713 35.0195C67.7515 35.0047 67.63 35.0135 67.5136 35.0454C67.3972 35.0773 67.2883 35.1317 67.193 35.2054C67.0978 35.2791 67.0181 35.3708 66.9585 35.4751C66.8989 35.5795 66.8605 35.6945 66.8457 35.8136C66.8308 35.9326 66.8396 36.0535 66.8717 36.1691L66.8709 36.168Z" fill="#EFC0A0"/>
<path d="M57.4454 31.1463C57.1475 32.1082 57.3416 34.3214 59.1754 34.5098C61.599 34.4953 61.7281 31.8197 60.9119 30.5616C60.2451 29.5315 58.28 29.1032 57.4454 31.1463Z" fill="#645D5C"/>
<path d="M76.8537 31.1463C77.1517 32.1086 76.9575 34.3214 75.1241 34.5098C72.7001 34.4953 72.571 31.8197 73.3868 30.5616C74.0548 29.5315 76.0191 29.1032 76.8537 31.1463Z" fill="#645D5C"/>
<path d="M90.1597 63.3424C92.8482 64.4374 95.3042 66.0277 97.3983 68.0295C99.2325 69.8377 100.462 72.1407 101.393 74.5126C101.997 76.0524 102.504 77.6287 102.993 79.2073C103.34 80.3276 105.116 79.8495 104.765 78.7216C103.892 75.9108 102.976 73.063 101.524 70.4856C100.023 67.9193 97.9408 65.7364 95.4424 64.1106C94.0732 63.1873 92.615 62.4018 91.0892 61.7657C90.8769 61.6512 90.6287 61.6214 90.3951 61.6823C90.1615 61.7432 89.96 61.8902 89.8315 62.0935C89.7102 62.303 89.6768 62.5517 89.7385 62.7855C89.8002 63.0194 89.9521 63.2197 90.1612 63.3432L90.1597 63.3424Z" fill="#D9D9D9"/>
<path d="M40.7744 112.011C40.0984 113.081 39.1549 113.959 38.0359 114.56C36.9169 115.16 35.6605 115.462 34.3891 115.437C31.6967 115.364 28.9012 113.488 27.3612 111.341C26.028 109.481 25.3432 107.326 24.6396 105.164C23.7671 102.485 23.031 99.7635 22.2811 97.0482C21.5124 94.2618 20.771 91.4525 19.7802 88.7349C19.71 88.5047 19.5535 88.3101 19.3431 88.1913C19.1327 88.0725 18.8844 88.0386 18.6496 88.0966C18.4156 88.1629 18.2173 88.3178 18.0972 88.5281C17.9772 88.7383 17.945 88.9871 18.0077 89.2207C19.9556 94.5682 21.0908 100.179 22.8468 105.589C23.599 107.907 24.3956 110.396 25.8598 112.381C27.7365 114.926 30.7495 116.949 33.9655 117.24C35.6266 117.346 37.2856 117.002 38.7647 116.243C40.2438 115.484 41.4872 114.339 42.3619 112.932C42.9671 111.918 41.3784 110.998 40.7744 112.009V112.011Z" fill="#D9D9D9"/>
<path d="M92.1969 79.9329C92.0774 84.9877 92 90.0433 91.925 95.0989C91.8333 101.25 91.7513 107.401 91.6791 113.553C91.6405 116.741 91.603 119.929 91.5665 123.118C91.5531 124.294 93.3915 124.295 93.4049 123.118C93.4723 117.246 93.5436 111.375 93.6189 105.504C93.6955 99.5794 93.7829 93.6553 93.8809 87.7311C93.9259 85.1314 93.9769 82.532 94.0341 79.9329C94.0621 78.7566 92.2237 78.757 92.1957 79.9329H92.1969Z" fill="#D9D9D9"/>
<path d="M92.491 112.933C93.2835 114.196 94.3724 115.25 95.6644 116.003C96.9564 116.757 98.413 117.188 99.9092 117.259C103.009 117.414 106.193 115.605 108.203 113.361C109.935 111.427 110.861 108.969 111.688 106.551C112.64 103.762 113.414 100.915 114.197 98.0753C115.015 95.1091 115.792 92.1164 116.847 89.2222C116.909 88.9886 116.877 88.7399 116.757 88.5297C116.637 88.3195 116.439 88.1645 116.205 88.0981C115.97 88.0387 115.721 88.0719 115.51 88.1909C115.299 88.31 115.143 88.5055 115.074 88.7365C113.231 93.797 112.117 99.0993 110.512 104.236C109.833 106.405 109.162 108.563 108.036 110.502C107.309 111.742 106.328 112.815 105.156 113.653C103.984 114.491 102.648 115.074 101.234 115.365C98.5534 115.871 95.4611 114.324 94.08 112.011C93.4764 111 91.8866 111.918 92.4925 112.933H92.491Z" fill="#D9D9D9"/>
<path d="M7.21411 19.6887C5.77749 20.1222 3.7706 20.7344 2.65149 21.0716C1.88532 21.2885 1.20696 21.739 0.712002 22.3594C0.210662 23.0773 -0.191483 23.8326 0.0957633 24.8231C0.737663 27.0385 3.9575 35.9403 4.7526 38.1581C4.99314 38.8775 5.35061 39.5528 5.81082 40.1573C6.56723 41.0972 7.60247 41.5277 8.58561 41.9213C9.90184 42.4444 11.2168 42.9675 12.5305 43.4908C12.6833 43.5545 12.8195 43.6519 12.929 43.7756C13.0384 43.8993 13.1181 44.0461 13.162 44.2049C14.1176 47.6758 16.4175 55.9552 18.6285 63.9088L20.3213 70.5959L25.193 68.8449C24 65.251 20.8388 55.7268 19.7492 52.449C18.4225 48.4585 17.2922 45.0641 16.6526 43.1547C16.6009 42.9997 16.585 42.8353 16.6058 42.6734C16.6267 42.5115 16.6839 42.3563 16.7733 42.2194L16.7798 42.2099C17.5826 41.0491 18.3844 39.8885 19.1854 38.7279C19.7844 37.8589 20.4045 36.9289 20.509 35.7298C20.5528 34.9734 20.473 34.215 20.2727 33.4839C19.6955 31.1999 17.4002 22.0202 16.6974 19.823C16.383 18.8409 15.63 18.4336 14.812 18.1127C14.0536 17.8702 13.2379 17.8702 12.4795 18.1127C11.2635 18.4789 9.00499 19.15 7.56225 19.5844L7.21411 19.6887Z" fill="#C6C6C6"/>
<path d="M17.1735 33.3842L14.0226 23.0488C13.6806 21.9262 11.9058 22.4047 12.2501 23.5345L15.4006 33.8703C15.743 34.9925 17.5178 34.514 17.1735 33.3842Z" fill="#908B8A"/>
<path d="M9.03448 35.8353L5.88358 25.4995C5.54156 24.3773 3.76676 24.8554 4.11107 25.9852L7.26159 36.321C7.60399 37.4436 9.37879 36.9651 9.03448 35.8353Z" fill="#908B8A"/>
<path d="M13.1038 34.6099L9.95329 24.2742C9.61127 23.1516 7.83609 23.6301 8.1804 24.7599L11.3313 35.0972C11.6733 36.2198 13.4481 35.7413 13.1038 34.6115V34.6099Z" fill="#908B8A"/>
<path d="M34.8062 79.5518C34.7357 77.7871 34.188 76.2168 33.8633 74.5575C33.5736 73.2663 33.1388 72.0115 32.5672 70.8168C31.9161 69.5899 29.9782 68.0672 29.1995 67.9195H23.8556C23.6278 67.644 23.3203 67.4447 22.9747 67.3485C21.4339 67.0576 19.8663 66.93 18.2983 66.9679C17.521 66.9737 16.7585 67.1804 16.0858 67.5678C15.7812 67.7634 15.5313 68.0324 15.3594 68.3499C15.1875 68.6673 15.0992 69.0227 15.1026 69.3832C15.1261 69.9474 15.2586 70.5018 15.4929 71.0162C15.7507 71.7041 16.6346 73.2016 16.8292 73.6455C16.8292 73.6455 16.9016 73.7597 17.008 73.9275C16.6847 74.1986 16.4636 74.5708 16.3811 74.9831C16.2552 75.6773 16.2995 76.3914 16.5101 77.065C16.6333 77.5175 16.8794 77.9276 17.2214 78.2504C17.4506 78.5026 17.6248 78.7993 17.733 79.1217C17.8326 81.0684 17.9556 83.2732 18.8001 84.8758C19.1904 85.5895 19.831 86.1358 20.6001 86.4106C21.9132 86.7691 23.2037 87.2045 24.465 87.7144C25.5698 88.1792 26.7113 88.5528 27.8778 88.8317C28.9073 89.0414 30.3163 88.4331 30.9119 88.0323C33.2244 86.3535 34.5504 83.5911 34.8116 79.9279C34.8133 79.8013 34.8116 79.6759 34.8062 79.5518Z" fill="#FCE0CD"/>
<path d="M22.8943 72.9096C23.7679 73.1201 24.6438 73.3245 25.5029 73.5899C26.2996 73.7855 27.06 74.1057 27.7557 74.5385C27.794 74.5647 27.8323 74.5918 27.8706 74.6196C27.8223 74.5842 27.8227 74.5861 27.8706 74.626C27.9557 74.6979 28.037 74.7741 28.1141 74.8544C28.0123 74.7471 28.1467 74.9012 28.1712 74.9427C28.1957 74.9842 28.2738 75.1963 28.221 75.0333C28.2478 75.1163 28.2689 75.1978 28.2915 75.2819C28.3436 75.4791 28.3049 75.1951 28.3053 75.3835C28.3053 75.4703 28.3053 75.559 28.3072 75.6458C28.2964 75.7562 28.2986 75.7619 28.3137 75.663C28.3072 75.7056 28.2995 75.7482 28.2903 75.7905C28.2838 75.8217 28.2137 76.0547 28.2558 75.95C28.298 75.8453 28.1731 76.0824 28.154 76.1091C28.2467 75.98 28.1364 76.1167 28.0912 76.1605C28.0709 76.1799 27.8755 76.328 28.0314 76.2195C27.9031 76.3081 27.7676 76.3857 27.6262 76.4517C27.8177 76.3619 27.6262 76.4475 27.5764 76.4627C27.4945 76.4873 27.4111 76.5066 27.3267 76.5206C27.0927 76.5866 26.8941 76.7414 26.774 76.9517C26.6539 77.1619 26.6219 77.4107 26.6848 77.6443C26.7543 77.8749 26.9107 78.07 27.1213 78.1888C27.3319 78.3077 27.5806 78.3412 27.8154 78.2823C28.2942 78.1961 28.7436 77.992 29.1226 77.6886C29.5016 77.3853 29.798 76.9923 29.9847 76.5457C30.1655 76.036 30.2052 75.4873 30.0996 74.957C29.994 74.4268 29.7471 73.9345 29.3845 73.5316C28.6354 72.7494 27.5557 72.3569 26.5534 72.0113C25.5167 71.6538 24.447 71.4041 23.3822 71.1475C23.2659 71.1156 23.1443 71.1068 23.0245 71.1216C22.9047 71.1364 22.789 71.1745 22.684 71.2338C22.579 71.293 22.4868 71.3723 22.4126 71.4669C22.3384 71.5616 22.2837 71.6698 22.2516 71.7855C22.2195 71.9012 22.2107 72.022 22.2256 72.1411C22.2405 72.2602 22.2788 72.3752 22.3384 72.4795C22.398 72.5839 22.4777 72.6755 22.573 72.7492C22.6682 72.823 22.7772 72.8773 22.8935 72.9092L22.8943 72.9096Z" fill="#EFC0A0"/>
<path d="M22.6017 77.1715C23.4849 77.3664 24.3792 77.5111 25.2589 77.7212C26.0544 77.8911 26.8205 78.1765 27.5324 78.5682C27.6281 78.6218 27.7239 78.677 27.8173 78.7349C27.8292 78.7421 27.9981 78.8632 27.9184 78.7977C27.8506 78.7421 27.9567 78.8388 27.9594 78.8411C28.0678 78.9488 27.9571 78.7947 28.0318 78.9283C28.0536 78.9663 28.0762 79.0044 28.0965 79.0425C28.162 79.1669 28.0659 78.9283 28.1095 79.0783C28.1532 79.2282 28.152 79.1677 28.1547 79.293C28.1547 79.3257 28.1478 79.5564 28.1589 79.4681C28.1458 79.5641 28.1212 79.6583 28.0858 79.7486C28.0931 79.7303 28.1436 79.6344 28.0912 79.7174C27.9916 79.8746 28.0666 79.7494 28.0724 79.7528C28.0839 79.7593 27.9468 79.8464 28.0513 79.7836C28.1432 79.7281 28.0329 79.797 28.0211 79.8034C27.9636 79.8343 27.8131 79.9009 27.9579 79.8483C27.8671 79.8811 27.7744 79.9009 27.6813 79.9245C27.5799 79.9511 27.6974 79.9279 27.7158 79.9245C27.6584 79.9321 27.6009 79.9359 27.5419 79.9389C27.0539 79.9594 26.5651 79.9409 26.08 79.8834C25.0155 79.7265 23.9646 79.4883 22.9368 79.1711C21.7959 78.854 21.3087 80.6177 22.4481 80.9332C23.6009 81.2788 24.7789 81.5346 25.9717 81.6984C27.0701 81.827 28.3669 81.9138 29.2616 81.1468C30.1781 80.3611 30.2133 78.795 29.5205 77.8605C28.8533 76.961 27.5737 76.4901 26.5331 76.1685C25.4098 75.8213 24.2352 75.6595 23.0912 75.4071C22.8562 75.3483 22.6075 75.3818 22.3968 75.5007C22.1861 75.6197 22.0297 75.8148 21.9602 76.0455C21.8981 76.279 21.9306 76.5274 22.0506 76.7375C22.1706 76.9475 22.3685 77.1025 22.6021 77.1692L22.6017 77.1715Z" fill="#EFC0A0"/>
<path d="M25.5274 81.6417C25.7403 81.7616 25.9429 81.8921 26.1448 82.0292C26.306 82.1392 26.0142 81.915 26.1497 82.033C26.1946 82.071 26.2409 82.1091 26.2853 82.1498C26.373 82.2298 26.4508 82.3166 26.5312 82.403C26.4366 82.2545 26.6603 82.5419 26.5312 82.403C26.5553 82.441 26.5818 82.4791 26.6036 82.5172C26.6902 82.6759 26.6105 82.4711 26.5799 82.4506C26.6021 82.465 26.6136 82.5476 26.6216 82.5758C26.6342 82.6196 26.645 82.6641 26.6542 82.7086C26.6603 82.7391 26.666 82.7699 26.6706 82.8008L26.6503 82.6516C26.6721 82.7539 26.6757 82.8593 26.661 82.9629C26.661 83.001 26.6388 83.1822 26.6637 83.0075C26.6886 82.8327 26.6614 83.0109 26.6534 83.0478C26.6438 83.0924 26.6323 83.1361 26.6189 83.1799C26.6074 83.2161 26.5442 83.3756 26.6109 83.2142C26.6775 83.0528 26.607 83.2008 26.5894 83.2355C26.5101 83.3878 26.6932 83.143 26.6362 83.1784C26.5973 83.2095 26.5607 83.2434 26.5266 83.2796C26.504 83.2991 26.481 83.3177 26.4577 83.3364C26.5598 83.2602 26.583 83.2412 26.5274 83.2793C26.4316 83.3379 26.3412 83.3992 26.2401 83.4498C26.0548 83.5423 26.3447 83.4159 26.2608 83.446C26.2095 83.4643 26.1586 83.4841 26.1076 83.5008C25.8826 83.5699 25.6519 83.619 25.4182 83.6477C25.1871 83.7105 24.9899 83.8608 24.869 84.0665C24.808 84.1701 24.7682 84.2846 24.7518 84.4035C24.7354 84.5224 24.7427 84.6433 24.7733 84.7594C24.8039 84.8755 24.8573 84.9845 24.9303 85.0801C25.0033 85.1757 25.0945 85.256 25.1988 85.3166C25.4176 85.4259 25.6672 85.4584 25.9069 85.4087C26.5659 85.3273 27.1902 85.0694 27.7131 84.6626C27.9569 84.4602 28.1534 84.2074 28.289 83.9219C28.4247 83.6365 28.4962 83.3251 28.4987 83.0094C28.5411 82.4326 28.3834 81.8587 28.0517 81.3836C27.6205 80.8359 27.0777 80.3851 26.4588 80.0608C26.3546 80.0002 26.2394 79.9606 26.1197 79.9443C26.0001 79.928 25.8784 79.9353 25.7617 79.9657C25.6449 79.9962 25.5352 80.0492 25.4391 80.1217C25.3429 80.1942 25.262 80.2849 25.2011 80.3885C25.1401 80.4921 25.1003 80.6066 25.0839 80.7255C25.0675 80.8444 25.0748 80.9654 25.1055 81.0814C25.1361 81.1975 25.1894 81.3065 25.2624 81.4021C25.3354 81.4977 25.4266 81.578 25.5308 81.6386L25.5274 81.6417Z" fill="#EFC0A0"/>
<path d="M23.4631 69.4856C23.4631 69.5156 23.4592 69.5457 23.4558 69.5758C23.4481 69.6486 23.4525 69.6151 23.4688 69.4753C23.4512 69.5267 23.4384 69.5795 23.4305 69.6332C23.4029 69.7284 23.3213 69.7855 23.4535 69.6047C23.4331 69.6393 23.4147 69.675 23.3983 69.7117C23.3788 69.7459 23.2742 69.8818 23.3796 69.7547C23.4849 69.6275 23.3888 69.7402 23.3635 69.7669C23.3285 69.7958 23.2955 69.8269 23.2647 69.8601C23.3581 69.7296 23.4102 69.757 23.3049 69.8259C23.2283 69.8765 23.136 69.9069 23.0598 69.9572C23.1065 69.9264 23.2681 69.8811 23.1237 69.926C23.077 69.9404 23.0314 69.9568 22.9843 69.9705C22.8962 69.9956 22.807 70.0162 22.7162 70.0337C22.666 70.0436 22.6159 70.0512 22.5653 70.0596C22.3761 70.0923 22.7978 70.0375 22.6036 70.0535C21.7656 70.1235 20.9207 70.0984 20.0804 70.1038C19.8367 70.1038 19.6029 70.2 19.4305 70.3713C19.2581 70.5427 19.1613 70.775 19.1613 71.0173C19.1613 71.2596 19.2581 71.492 19.4305 71.6634C19.6029 71.8347 19.8367 71.9309 20.0804 71.9309C21.0898 71.9712 22.1007 71.932 23.1038 71.8137C23.6425 71.7323 24.1478 71.5032 24.5626 71.1521C24.7896 70.9361 24.9714 70.6777 25.0976 70.3917C25.2238 70.1057 25.2919 69.7978 25.298 69.4856C25.2968 69.2436 25.1995 69.0119 25.0274 68.8409C24.8553 68.6698 24.6222 68.5732 24.3788 68.572C24.1368 68.5777 23.9063 68.6757 23.7352 68.8459C23.564 69.016 23.4653 69.245 23.4596 69.4856H23.4631Z" fill="#EFC0A0"/>
<path d="M109.345 65.8879L113.221 54.9731L119.037 57.248L115.653 66.8076L109.345 65.8879Z" fill="#7A7473"/>
<path d="M128.416 19.3906C117.275 15.6335 106.646 21.6126 103.22 31.648C99.3864 42.8776 104.613 53.2617 115.591 56.9621C126.989 60.8068 137.097 55.5118 140.907 44.3557C144.354 34.2533 139.517 23.1348 128.416 19.3906Z" fill="#C6C6C6"/>
<path d="M136.282 30.5886C133.07 24.6205 126.028 21.3453 119.347 22.3282C113.084 23.2513 108.164 28.0834 106.52 34.0599C105.666 37.0253 105.664 40.1689 106.513 43.1356C107.362 45.9246 109.022 48.4019 111.283 50.2563C115.984 54.101 122.891 55.5114 128.564 53.0881C134.589 50.5144 138.363 43.6663 138.092 37.2681C138.047 36.2659 137.911 35.2698 137.685 34.2921C137.423 33.1459 135.65 33.6308 135.912 34.7778C137.252 40.6419 134.551 47.4919 129.321 50.6492C124.653 53.4661 118.593 52.7988 114.061 50.0047C111.822 48.6386 110.032 46.6546 108.909 44.2948C107.831 41.9114 107.462 39.2716 107.843 36.6864C108.603 31.1562 112.265 26.2182 117.736 24.5608C123.371 22.855 130.026 24.9723 133.547 29.6959C133.974 30.2718 134.358 30.8781 134.696 31.5098C135.255 32.5471 136.841 31.624 136.284 30.5878L136.282 30.5886Z" fill="#908B8A"/>
<path d="M118.695 68.3847C118.545 67.6681 118.12 67.0376 117.511 66.6256C116.516 65.9404 115.296 66.0113 114.114 66.3794C114.073 66.1102 113.971 65.8541 113.814 65.6311C113.657 65.408 113.45 65.224 113.21 65.0935C112.579 64.7936 111.872 64.6869 111.18 64.787C109.426 65.1704 106.404 66.7988 105.632 67.5541C104.138 69.017 103.38 70.3748 103.028 71.7132C102.476 73.8217 102.016 78.7483 103.167 81.4106C103.606 82.4312 103.195 83.7681 103.001 84.2854C103.295 84.5099 103.617 84.6961 103.959 84.8392C105.882 85.7421 107.878 86.483 109.926 87.0539L111.693 86.4864C114.303 85.6489 119.581 81.9919 120.419 80.8031C121.203 79.69 120.922 77.792 120.662 76.4582C120.467 75.17 120.019 73.9324 119.344 72.8156C119.06 72.4613 118.832 72.0662 118.668 71.6439C118.44 70.8579 118.692 70.0371 118.751 69.2214C118.771 68.9413 118.753 68.6597 118.695 68.3847Z" fill="#FCE0CD"/>
<path d="M113.243 66.91C113.235 67.0725 113.31 66.6903 113.243 66.8769C113.226 66.9286 113.215 66.9831 113.197 67.0352C113.174 67.1068 113.145 67.1757 113.121 67.2465C113.097 67.3055 113.102 67.2956 113.134 67.2175L113.1 67.296C113.081 67.3287 113.065 67.3603 113.044 67.3919C113.024 67.4235 112.937 67.5324 113.031 67.4155C113.131 67.2925 113.024 67.4227 113.001 67.449C112.964 67.4929 112.925 67.5359 112.886 67.578C112.817 67.6542 112.746 67.725 112.671 67.7939C112.64 67.8184 112.611 67.8444 112.583 67.8719C112.692 67.7482 112.746 67.7535 112.612 67.8396C112.386 67.985 112.158 68.1254 111.926 68.2609C111.054 68.7737 110.135 69.2004 109.228 69.6485C109.019 69.7718 108.867 69.9721 108.805 70.206C108.743 70.44 108.777 70.6886 108.898 70.8982C109.025 71.103 109.227 71.2514 109.461 71.3124C109.695 71.3734 109.944 71.3425 110.156 71.2259C111.146 70.7368 112.147 70.2693 113.094 69.6957C113.562 69.4355 113.983 69.0982 114.338 68.6979C114.771 68.1957 115.032 67.5687 115.08 66.9088C115.079 66.6671 114.981 66.4357 114.809 66.2647C114.637 66.0937 114.405 65.9969 114.161 65.9952C113.919 66.0003 113.688 66.0982 113.517 66.2684C113.346 66.4387 113.247 66.6681 113.242 66.9088L113.243 66.91Z" fill="#EFC0A0"/>
<path d="M110.562 69.8259C109.21 70.87 107.722 72.5621 108.193 74.3965C108.307 74.8529 108.529 75.2759 108.839 75.6308C109.15 75.9857 109.541 76.2623 109.98 76.438C110.893 76.7478 111.846 76.3371 112.715 76.0741L112.006 74.4041C110.564 75.0132 109.192 76.1171 109.507 77.8445C109.569 78.227 109.729 78.5872 109.971 78.8908C110.213 79.1943 110.53 79.4311 110.89 79.5785C111.637 79.8195 112.444 79.7996 113.178 79.5221L112.469 77.8521C111.064 78.5343 109.923 79.9504 110.702 81.5366C111.324 82.8023 112.962 83.0471 114.238 82.9473C114.48 82.9416 114.711 82.8435 114.882 82.6734C115.053 82.5033 115.152 82.2742 115.157 82.0337C115.155 81.792 115.058 81.5607 114.886 81.3898C114.714 81.2189 114.481 81.122 114.238 81.1201C113.936 81.1525 113.631 81.1561 113.328 81.1308C113.043 81.0866 112.54 81.0227 112.367 80.7779C111.95 80.1887 112.916 79.6637 113.397 79.43C114.333 78.9759 113.678 77.4505 112.689 77.76C112.107 77.9427 111.286 78.1536 111.291 77.3272C111.296 76.6139 112.396 76.2088 112.934 75.982C113.897 75.5758 113.209 74.0139 112.226 74.312C111.781 74.4471 111.053 74.8476 110.584 74.7132C110.402 74.6226 110.247 74.4869 110.134 74.3192C110.02 74.1516 109.952 73.9576 109.936 73.7562C109.887 73.2716 110.24 72.7638 110.525 72.3995C110.916 71.9192 111.365 71.4887 111.862 71.1178C112.033 70.9459 112.129 70.7138 112.129 70.4718C112.129 70.2299 112.033 69.9978 111.862 69.8259C111.687 69.6601 111.454 69.5677 111.212 69.5677C110.97 69.5677 110.738 69.6601 110.562 69.8259Z" fill="#EFC0A0"/>
<path d="M101.815 84.2976C102.367 85.1415 103.244 85.521 104.135 85.9192C105.021 86.3147 105.918 86.6862 106.831 87.017C108.543 87.6386 110.305 88.1129 112.055 88.6158C113.193 88.9436 113.679 87.1811 112.543 86.8537C110.928 86.3885 109.301 85.9493 107.714 85.3946C106.973 85.1358 106.242 84.8514 105.521 84.5416C105.109 84.363 104.697 84.1814 104.292 83.9877C103.946 83.8654 103.639 83.6537 103.403 83.3744C102.76 82.392 101.168 83.3067 101.815 84.2964V84.2976Z" fill="#D9D9D9"/>
</g>
<defs>
<clipPath id="clip0_444_167">
<rect width="142" height="124" fill="white"/>
</clipPath>
</defs>
</svg>
