<svg xmlns="http://www.w3.org/2000/svg" width="279.788" height="312.026" viewBox="0 0 279.788 312.026"><defs><style>.a{fill:#fce0cd;}.b{fill:#fff;}.c{fill:#7a7473;}.d{fill:#d9d9d9;}.e{fill:#5394cf;}.f{fill:#f2635f;}.g{fill:#4d4544;}.h{fill:#efc0a0;}.i{fill:#645d5c;}</style></defs><path class="a" d="M201.774,235.253c-1.29-.44-22.43-10.33-22.87-10.49-6.68-2.41-6.42-6.71-7.26-11.51a90.814,90.814,0,0,1-1.34-10.942c17.359-7.368,31.338-30.751,33.771-37.356.366-1.11,1.109-3.2,1.772-5.674.89-.157,1.392-.234,1.392-.234a17.415,17.415,0,0,0,8.1-3.649,26.269,26.269,0,0,0,6.79-8.912,41.318,41.318,0,0,0,4.213-21.9,13.782,13.782,0,0,0-1.444-5.547,9.752,9.752,0,0,0-7.011-4.661,10.326,10.326,0,0,0-8.263,2.418s7.195-57.864-69.551-57.864c-72.163,0-69.048,57.864-69.048,57.864a10.328,10.328,0,0,0-8.263-2.418,9.753,9.753,0,0,0-7.012,4.662,13.788,13.788,0,0,0-1.443,5.546,41.318,41.318,0,0,0,4.213,21.9,26.256,26.256,0,0,0,6.79,8.912,17.41,17.41,0,0,0,8.1,3.649s1,.153,2.639.4A70.238,70.238,0,0,0,89.432,185.59c6.031,7.218,12.764,12.755,20.087,16.241a91.041,91.041,0,0,1-1.369,11.419c-.843,4.807-.579,9.1-7.262,11.517-.442.16-21.58,10.046-22.867,10.485,0,0,.426,36.8,60.871,36.8S201.774,235.253,201.774,235.253Z"/><path class="b" d="M277.028,301.737c-2.547-5.272-4.715-10.731-7.642-15.816-2.592-4.5-7.367-15.3-17.094-23.924-5.153-4.568-17.815-13.829-37.114-22.816-3.493-1.626-7.43-3.514-11.4-5.34l-.132.093a111.716,111.716,0,0,1-127.5.054l-.178-.126c-3.958,1.819-7.877,3.7-11.357,5.319-19.3,8.987-31.961,18.248-37.113,22.816-9.728,8.625-14.5,19.422-17.095,23.924-2.927,5.085-5.1,10.544-7.642,15.816Z"/><path class="c" d="M202.507,68.226c4.064,4.5,12.191,7.655,21.223,7.7,9.785.038,18.525-3.432,23.873-7.908a8.18,8.18,0,0,0,2.356-2.767A2.471,2.471,0,0,0,250.206,64c-.014-.177-.161-.85-.382-.889-5.535-1-7.781-6.236-8.34-11.8-.551-5.592.113-11.5-.711-17.048-1.192-8.031-3.7-15.35-5.645-18.068C226.563,2.472,217.461.733,210.063.076c-7.174-.636-16.25,2.772-21.027,8.161a21.862,21.862,0,0,0-5,18.472Z"/><path class="c" d="M209.62,116.8a10.326,10.326,0,0,1,8.263-2.418,9.868,9.868,0,0,1,2.346.655,109.339,109.339,0,0,0,1.792-25,80.6,80.6,0,0,0-11.364-38.684A75.98,75.98,0,0,0,200.2,37.961c-1.592-1.628-4.011-4.008-5.657-5.455a93.923,93.923,0,0,0-13.758-9.234,80.6,80.6,0,0,0-12.015-5.452,84.637,84.637,0,0,0-28.483-4.728c-19.084,0-35.287,5.617-48.255,15.03C76.977,39.051,59.927,58.52,58.563,90.031a100.286,100.286,0,0,0,.51,12.735,94.428,94.428,0,0,0,2.086,11.987,9.99,9.99,0,0,1,1.6-.376,10.328,10.328,0,0,1,8.263,2.418c22.044-5.06,47.217-19.465,52.468-21.889,19.849-4.5,38.872-13.568,50.375-27.719,2.425,8.356,6.431,19.643,9.375,24.575,4.165,6.98,16.235,22.685,26.381,25.033"/><path class="d" d="M36.485,251.705c-7.148,4.842-13.667,10.129-18.927,17.03-3.944,5.174-6.883,10.918-10.034,16.579-2.7,4.851-4.783,10.012-7.187,15.01a2.875,2.875,0,0,0,1.005,3.831,2.825,2.825,0,0,0,3.831-1c2.07-4.3,3.9-8.725,6.094-12.971,1.349-2.611,2.8-5.181,4.212-7.761,3.659-6.7,7.964-13,13.663-18.146a92.336,92.336,0,0,1,10.169-7.732,2.869,2.869,0,0,0,1.005-3.831,2.827,2.827,0,0,0-3.831-1Z"/><path class="d" d="M240.575,256.61c6.542,4.439,12.662,9.331,17.4,15.732,3.757,5.074,6.646,10.682,9.672,16.2,2.594,4.733,4.626,9.746,6.963,14.6a2.825,2.825,0,0,0,3.83,1,2.86,2.86,0,0,0,1.005-3.831c-6.816-14.172-13.131-29.627-25.174-40.307a106,106,0,0,0-10.87-8.242,2.8,2.8,0,1,0-2.827,4.835Z"/><path class="e" d="M214.2,278.08c7.613-3.543,34.559-22.479,33.922-23.449-2.267-3.449-25.994-13.808-42.557-21.689-9.09-4.325-15.47-8.284-17.075-9.059-11.324,18.579-30.406,51.164-41.964,70.282C158.909,296.705,179.634,294.167,214.2,278.08Z"/><path class="e" d="M66.494,278.08c-7.612-3.543-34.559-22.479-33.921-23.449,2.266-3.449,25.993-13.808,42.557-21.689,9.089-4.325,15.47-8.284,17.075-9.059,11.324,18.579,30.406,51.164,41.964,70.282C121.782,296.705,101.057,294.167,66.494,278.08Z"/><path class="b" d="M156.161,284.745c12.984-1.807,25.51-6.376,37.416-11.731a200.192,200.192,0,0,0,30.968-17.171,70.2,70.2,0,0,0,10.279-8.1c2.545-2.557-1.413-6.519-3.96-3.959a42.264,42.264,0,0,1-3.475,3.076c-.336.271-.675.537-1.015.8.389-.3.025-.02-.151.113q-.327.248-.654.492-1.3.974-2.64,1.905c-4.274,3-8.719,5.749-13.245,8.345a194.718,194.718,0,0,1-34.435,15.776,113.361,113.361,0,0,1-20.577,5.055c-1.5.209-2.319,2.123-1.956,3.444a2.875,2.875,0,0,0,3.445,1.956Z"/><path class="b" d="M126.019,279.345c-12.554-1.747-24.739-6.053-36.252-11.244A200.844,200.844,0,0,1,59.2,251.162q-1.566-1.067-3.1-2.179-.681-.5-1.354-1-.321-.243-.641-.487c.432.331-.06-.048-.219-.174a44.788,44.788,0,0,1-4.059-3.54c-2.545-2.559-6.506,1.4-3.96,3.959a65.384,65.384,0,0,0,8.854,7.114c4.293,3.023,8.763,5.8,13.314,8.411a202.923,202.923,0,0,0,35.558,16.3,113.958,113.958,0,0,0,20.938,5.177,2.9,2.9,0,0,0,3.444-1.956c.36-1.309-.448-3.234-1.955-3.444Z"/><path class="d" d="M125.672,297.247c0,3.993.189,7.984.193,11.977a2.8,2.8,0,0,0,5.6,0c0-3.993-.19-7.984-.193-11.977a2.8,2.8,0,1,0-5.6,0Z"/><path class="d" d="M151.366,297.247c0,3.993-.189,7.984-.193,11.977a2.8,2.8,0,1,0,5.6,0c0-3.993.19-7.984.193-11.977a2.8,2.8,0,0,0-5.6,0Z"/><path class="f" d="M123.976,279.178c.557,5.056,2.325,13.7,3.02,18.654a61.946,61.946,0,0,0,14.682,3.837,42.205,42.205,0,0,0,13.015-4.061,112.246,112.246,0,0,0,2.916-18.43C156.533,278.9,126.685,279.178,123.976,279.178Z"/><path class="g" d="M104.545,83.1c-.463-1.307-.725-2.753.106-3.8a4.526,4.526,0,0,1,2.078-1.23l4.538-1.674a5.245,5.245,0,0,1,5.957,1.692,108.384,108.384,0,0,1,10.82,16.993,5.212,5.212,0,0,1-2.05,6.882,50.344,50.344,0,0,1-6.917,3.273,5.224,5.224,0,0,1-6.667-2.935l-7.582-18.469C104.73,83.6,104.634,83.354,104.545,83.1Z"/><path class="h" d="M128.438,172.756a26.994,26.994,0,0,0,13,3c4.591-.03,9.3-.9,12.99-3.775,1.194-.93.976-2.984,0-3.96a2.871,2.871,0,0,0-3.96,0c.807-.629.036-.048-.17.085q-.4.256-.825.477c-.164.086-1.08.493-.461.242q-.561.228-1.138.414a20.933,20.933,0,0,1-6.865.917,21.812,21.812,0,0,1-6.553-.883c-.417-.124-.823-.272-1.234-.414-.134-.047-.265-.106-.4-.155.682.253.077.034-.051-.026-.511-.239-1.013-.491-1.512-.754a2.861,2.861,0,0,0-3.831,1,2.831,2.831,0,0,0,1,3.831Z"/><path class="h" d="M140.321,141.731a62.61,62.61,0,0,1,1.473,6.74l-.1-.745a4.077,4.077,0,0,1,.025.93l.1-.744a2.218,2.218,0,0,1-.1.418l.282-.668a1.756,1.756,0,0,1-.147.269l.437-.567a1.411,1.411,0,0,1-.22.217l.567-.438a4.466,4.466,0,0,1-.534.283l.669-.283a3.872,3.872,0,0,1-.9.263l.745-.1a3.565,3.565,0,0,1-.845,0l.744.1c-.318-.044-.631-.121-.949-.164a3.091,3.091,0,0,0-2.158.282,2.8,2.8,0,0,0-1,3.831,2.68,2.68,0,0,0,1.673,1.287c.667.089,1.314.261,1.991.291a6.251,6.251,0,0,0,2.861-.67,3.984,3.984,0,0,0,2.251-2.644,6.888,6.888,0,0,0-.032-2.922c-.367-2.171-.869-4.323-1.427-6.453a2.8,2.8,0,0,0-5.4,1.489Z"/><path class="i" d="M104.053,122.819c-1.126,3.657-.392,12.071,6.537,12.787,9.158-.055,9.645-10.227,6.562-15.01C114.628,116.68,107.206,115.051,104.053,122.819Z"/><path class="i" d="M177.391,122.819c1.126,3.658.392,12.071-6.537,12.787-9.158-.055-9.646-10.227-6.563-15.01C166.815,116.68,174.237,115.052,177.391,122.819Z"/></svg>