<svg xmlns="http://www.w3.org/2000/svg" width="278.13" height="371.488" viewBox="0 0 278.13 371.488"><defs><style>.a{fill:#fce0cd;}.b{fill:#7a7473;}.c{fill:#efc0a0;}.d{fill:#645d5c;}.e{fill:#fff;}.f{fill:#bdbdbd;}.g{fill:#3D8DCC;}.h{fill:#cfcfcf;}.i{fill:#e2e2e2;}</style></defs><path class="a" d="M194,91.053a8.39,8.39,0,0,1,6.713-1.964,7.92,7.92,0,0,1,5.695,3.787,11.2,11.2,0,0,1,1.173,4.506,33.563,33.563,0,0,1-3.422,17.792,21.323,21.323,0,0,1-5.517,7.239,14.127,14.127,0,0,1-6.577,2.965l-1.115.171c-.55,2.023-1.157,3.725-1.455,4.628-1.988,5.4-13.465,24.583-27.681,30.451a77.747,77.747,0,0,0,1.128,11.118c.665,3.884.438,7.353,5.826,9.323.357.13,3.35,1.326,4.156,1.684,0,0,3.36,26.854-34.862,26.854s-34.942-27.451-34.942-27.451c.662-.279,2.905-1.208,3.263-1.336,5.4-1.927,5.2-5.4,5.9-9.275a78.008,78.008,0,0,0,1.213-11.033,48.532,48.532,0,0,1-17.134-13.57A57.073,57.073,0,0,1,85.486,125.7c-1.338-.2-2.144-.326-2.144-.326a14.144,14.144,0,0,1-6.577-2.964,21.346,21.346,0,0,1-5.516-7.24,33.563,33.563,0,0,1-3.422-17.792A11.187,11.187,0,0,1,69,92.876a7.924,7.924,0,0,1,5.7-3.787,8.391,8.391,0,0,1,6.713,1.964S76.731,38.94,133.62,38.94C196.731,38.94,194,91.053,194,91.053Z"/><path class="b" d="M182.209,78.5a70.22,70.22,0,0,0-20.793-16.236,1.505,1.505,0,0,0-.336-.123L150.2,59.557a1.4,1.4,0,0,0-.918.089C142.053,63,129.61,69.775,128.506,69.3c-.776-.334-2.185-3.585-3.191-6.69-.28-.863-.529-1.716-.725-2.491a1.416,1.416,0,0,0-2.283-.733c-13.367,11.147-22.24,19.034-37.226,33.847a1.421,1.421,0,0,1-2.264-.375,7.961,7.961,0,0,0-8.122-3.77c-.209.032-.417.071-.623.119a1.406,1.406,0,0,1-1.657-1.077c-3.925-17.293-2.807-31.935.724-42.3,3.021-8.87,9.526-18.869,17.826-24.228a1.424,1.424,0,0,0-.133-2.492l-2.54-1.21a1.423,1.423,0,0,1-.343-2.332C101.864,2.586,119.7-.429,135.255.047,152.4.571,165.8,7.3,173.881,18.268a1.36,1.36,0,0,0,.221.234L183.149,26a1.291,1.291,0,0,0,.225.149c7.557,3.961,14.634,12.041,18.319,22.342,5.2,14.528,4.672,29.83.657,40.517a.513.513,0,0,1-.631.3,8.243,8.243,0,0,0-8.234,2.283,1.414,1.414,0,0,1-2.314-.233A70.217,70.217,0,0,0,182.209,78.5Z"/><path class="c" d="M127.989,139.956a22.058,22.058,0,0,0,10.627,2.451c3.768-.024,7.618-.748,10.641-3.1a2.413,2.413,0,0,0,0-3.394,2.461,2.461,0,0,0-3.394,0c.7-.548.067-.066-.113.049-.217.139-.441.268-.67.388-.144.076-.915.412-.345.184-.3.122-.612.235-.924.336a16.368,16.368,0,0,1-5.544.74,17.094,17.094,0,0,1-5.29-.712c-.339-.1-.669-.222-1-.337-.109-.037-.214-.093-.324-.126.582.175.134.06-.011-.008-.415-.195-.823-.4-1.228-.613a2.453,2.453,0,0,0-3.284.861,2.427,2.427,0,0,0,.861,3.284Z"/><path class="c" d="M137.585,114.677a50.974,50.974,0,0,1,1.2,5.475l-.086-.638a3.287,3.287,0,0,1,.02.755l.086-.638a1.8,1.8,0,0,1-.083.34l.242-.573a1.411,1.411,0,0,1-.12.219l.375-.486a1.1,1.1,0,0,1-.179.176l.486-.375a3.378,3.378,0,0,1-.433.229l.573-.242a3.176,3.176,0,0,1-.731.214l.638-.086a2.97,2.97,0,0,1-.686,0l.638.085c-.259-.036-.513-.1-.771-.133a2.646,2.646,0,0,0-1.85.242,2.4,2.4,0,0,0-.861,3.283,2.3,2.3,0,0,0,1.435,1.1c.552.075,1.089.216,1.65.241a5.2,5.2,0,0,0,2.387-.561,3.357,3.357,0,0,0,1.887-2.223,5.737,5.737,0,0,0-.026-2.44c-.3-1.764-.706-3.512-1.16-5.242a2.4,2.4,0,1,0-4.628,1.276Z"/><path class="d" d="M108.242,99.279c-.914,2.972-.318,9.807,5.311,10.389,7.44-.045,7.836-8.309,5.331-12.194C116.834,94.293,110.8,92.97,108.242,99.279Z"/><path class="d" d="M167.821,99.28c.914,2.971.318,9.806-5.311,10.388-7.439-.045-7.836-8.309-5.331-12.194C159.229,94.292,165.259,92.97,167.821,99.28Z"/><path class="e" d="M141.018,178.87l-6.409-.013a1.233,1.233,0,0,0,.027-.721c-.153-.507-.689-.776-1.17-1a80.638,80.638,0,0,1-23.205-16.31,40.341,40.341,0,0,0-8.5,11.606c2.126,7.812,5.521,22.065,10.419,36.28,8.79,25.512,20.863,53.992,27.365,68.181l.733,1.158c7.8-18.575,18.149-47.384,25.327-71.128a333.391,333.391,0,0,0,8.368-34.948,39.76,39.76,0,0,0-8.03-10.92A80.631,80.631,0,0,1,142.6,177.184c-.482.217-1.02.482-1.178.987a1.187,1.187,0,0,0,.02.7Z"/><path class="f" d="M148.6,354.2H53.743C36.4,350.818,5.165,332.81,2.613,328.071c-4.063-7.545-2.877-19.248.086-29.322,7.926-26.949,13.051-39.265,22.145-65.88,2.953-8.642,6.213-21.462,12.888-27.856,4.423-4.236,13.474-9.253,19.14-11.708,16.623-7.2,30.263-12.827,45.313-19.283,2.138,8.047,5.405,21.387,9.991,34.694,8.79,25.512,20.863,53.992,27.365,68.181l.667,1.32c7.805-18.571,18.195-47.478,25.393-71.29a332.377,332.377,0,0,0,8.142-33.731l1.368.468c15.382,6.607,30.135,12.529,46.146,19.641,5.644,2.507,14.717,7.472,19.14,11.708,6.675,6.394,9.936,19.214,12.888,27.856,9.094,26.615,14.22,38.931,22.146,65.88,2.963,10.074,4.148,21.777.086,29.322-2.552,4.739-33.784,22.747-51.131,26.132Z"/><path class="g" d="M143.471,181.954a22.65,22.65,0,0,1-1.781-2.468,3.649,3.649,0,0,1-.245-.615c-2.315,0-4.7-.01-6.836-.013a3.966,3.966,0,0,1-.247.591,83.62,83.62,0,0,1-5.3,6.743c.4,2,.9,4.068,1.354,6.059.106.46.215.919.33,1.379a12.184,12.184,0,0,1,.489,3.058c-.009.767-3.3,26.88-5.81,46.753,5.723,13.927,11.267,26.429,14.87,34.29l.061.134c3.95-9.433,8.551-21.47,13.059-34.13-2.805-19.445-6.671-45.492-6.649-46.644a18.484,18.484,0,0,1,1.212-5.419c.256-.771.575-2.146.81-3.113C146.771,186.09,144.821,183.688,143.471,181.954Z"/><path class="e" d="M119.893,197.231c-7.443-7.456-12.3-16.47-17.785-25.477a39.781,39.781,0,0,1,8.153-10.924,80.638,80.638,0,0,0,23.205,16.31c.481.22,1.017.489,1.17,1a1.866,1.866,0,0,1-.274,1.313C133.66,180.889,123.789,192.472,119.893,197.231Z"/><path class="e" d="M156.017,197.383c7.5-7.4,12.432-16.372,17.988-25.335a39.812,39.812,0,0,0-8.066-10.989A80.631,80.631,0,0,1,142.6,177.184c-.482.217-1.02.482-1.178.987a1.867,1.867,0,0,0,.264,1.315C142.381,180.931,152.159,192.593,156.017,197.383Z"/><path class="h" d="M140.3,277.731c-6.5-14.189-19.333-43.5-28.123-69.015-5.491-15.933-9.091-31.916-11.127-38.822-3.88.308-20.124,21.6-22.783,28.421-.177.453,7.858,7.757,11.407,10.966-1.819,1.565-8.648,9.5-8.771,10.295-.094.613,42.258,52.918,54.379,68.463"/><path class="h" d="M132.031,301.721a68.494,68.494,0,0,1,2.553-11.051c7.609-15.107,21.883-53.527,31.017-83.743a333.551,333.551,0,0,0,8.738-37.026c3.972.534,19.907,21.781,22.5,28.6.176.462-8.185,7.932-11.665,11.027,1.514,1.171,8.74,9.682,8.86,10.5.09.614-31.788,49.768-48.721,75.059"/><path class="i" d="M139.41,238.963c-37.781.274-75.38.493-88.729.539a3.837,3.837,0,0,0-3.827,3.855c.077,21.69,1.124,96.753,1.921,124.344a3.842,3.842,0,0,0,3.909,3.731c12.065-.186,49.432-.071,86.726.056,37.294-.127,74.661-.242,86.725-.056a3.843,3.843,0,0,0,3.91-3.731c.8-27.591,1.843-102.654,1.92-124.344a3.836,3.836,0,0,0-3.826-3.855C214.789,239.456,177.191,239.237,139.41,238.963Z"/><path class="f" d="M65.078,360.255c18.267-.114,36.537-.017,54.8.039,22.388.069,44.775-.035,67.163-.068,8.9-.013,17.8-.027,26.7.029,3.089.019,3.092-4.781,0-4.8-18.268-.114-36.538-.017-54.806.039-22.388.069-44.774-.035-67.162-.068-8.9-.013-17.8-.027-26.7.029-3.088.019-3.1,4.819,0,4.8Z"/><path class="f" d="M139.41,294.549c-2.293.022-4.527.041-6.113.053a2.186,2.186,0,0,0-2.172,2.185c-.008,3.033-.014,8.225.014,11.493a2.189,2.189,0,0,0,2.194,2.173c1.583,0,3.831.008,6.077.018,2.245-.01,4.494-.019,6.076-.018a2.191,2.191,0,0,0,2.2-2.173c.027-3.268.021-8.46.014-11.493a2.186,2.186,0,0,0-2.172-2.185C143.936,294.59,141.7,294.571,139.41,294.549Z"/></svg>