<svg width="367" height="326" viewBox="0 0 367 326" fill="none" xmlns="http://www.w3.org/2000/svg">
<g clip-path="url(#clip0_512_6)">
<path d="M325.736 308.834C336.08 298.153 349.08 284.774 360.336 272.955C362.173 271.027 363.964 269.141 365.689 267.314C366.036 266.949 366.226 266.463 366.217 265.959C366.011 251.283 365.972 223.943 365.972 211.005C356.947 205.446 317.854 187.005 308.533 182.113C298.51 176.86 282.06 168.802 263.753 160.053L215.701 133.963C190.291 122.163 169.224 112.442 163.401 110.052C152.881 117.612 121.921 142.522 99.2509 160.272L98.4289 160.916L98.1289 161.154C127.744 162.745 201.396 198.454 216.986 206.034C227.363 211.08 289.155 246.402 295.525 252.586C305.604 262.374 309.635 270.46 312.013 284.307C312.477 287.013 314.588 308.443 314.859 320.107C315.171 319.776 315.33 319.607 315.33 319.607C318.257 316.562 321.805 312.893 325.736 308.834Z" fill="#ECECEC"/>
<path d="M159.089 143.386C155.852 146.469 153.005 149.519 151.666 150.967C147.802 154.927 144.534 159.429 141.966 164.33L139.197 170.544C147.675 174.366 156.418 179.028 166.033 183.957C182.227 192.257 200.569 198.047 216.994 206.034C227.371 211.08 236.294 218.072 245.615 223.748C264.793 234.208 282.215 242.948 291.195 249.156C291.435 248.963 291.561 248.867 291.561 248.867C297.241 244.47 302.348 239.379 306.761 233.711C316.22 221.601 314.347 210.092 309.576 203.235C307.314 199.972 298.102 193.128 294.768 190.996C284.319 184.328 273.821 179.663 266.268 175.812L204.109 145C199.887 142.555 191.45 138.388 187.59 136.185C184.691 134.456 181.389 133.519 178.014 133.468C174.639 133.416 171.31 134.252 168.359 135.891C165.017 138.06 161.91 140.572 159.089 143.386Z" fill="white"/>
<path d="M168.2 45.3259C167.583 45.2442 166.957 45.2961 166.362 45.4783C165.767 45.6604 165.219 45.9685 164.754 46.3815C164.289 46.7945 163.919 47.3028 163.668 47.8718C163.417 48.4408 163.291 49.0571 163.3 49.6789C163.3 62.9019 163.3 96.2929 163.3 110.163C169.51 112.713 195.3 124.314 222.67 137.084L263.65 160.164C281.957 168.913 298.407 176.971 308.43 182.224C317.761 187.116 356.921 205.593 365.896 211.133C365.896 193.96 365.996 152.514 365.996 135.762C365.913 134.183 365.422 132.653 364.571 131.321C363.72 129.988 362.537 128.9 361.139 128.162C331.58 114.5 206.429 60.1539 169.051 45.5589C168.776 45.4514 168.491 45.3733 168.2 45.3259Z" fill="#CFCFCF"/>
<path d="M314.1 262.429C326.193 251.356 337.946 239.914 349.9 228.695C352.463 226.295 355.03 223.895 357.642 221.541C359.559 219.815 356.723 216.993 354.813 218.712C343.145 229.212 331.941 240.24 320.513 250.998C317.446 253.882 314.366 256.749 311.271 259.598C309.371 261.34 312.203 264.163 314.1 262.426V262.429Z" fill="#CFCFCF"/>
<path d="M94.6861 0.54597L94.6001 0.60597C83.0941 8.27797 51.9411 26.3 26.3681 42.842C26.2118 42.955 26.0832 43.102 25.9919 43.2719C25.9006 43.4419 25.8491 43.6303 25.8411 43.823C26.1771 71.393 26.9501 114.843 27.2121 135.267C27.2146 135.489 27.2791 135.706 27.3984 135.893C27.5176 136.08 27.6869 136.231 27.8869 136.327C28.087 136.423 28.31 136.461 28.5307 136.437C28.7514 136.414 28.9611 136.329 29.1361 136.192C52.1361 118.292 84.3221 95.01 97.3871 86.07C97.5432 85.9644 97.6706 85.8217 97.7579 85.6546C97.8452 85.4876 97.8896 85.3014 97.8871 85.113C97.7031 59.027 97.0871 23.444 97.0171 1.15697C97.0149 0.947371 96.9562 0.74224 96.8472 0.563238C96.7381 0.384236 96.5827 0.238006 96.3974 0.139988C96.2121 0.0419703 96.0038 -0.00419713 95.7945 0.0063605C95.5852 0.0169181 95.3825 0.083809 95.2081 0.19997L94.6861 0.54597Z" fill="#3F88C9"/>
<path d="M81.1519 44.231C78.8859 42.175 75.7329 41.493 72.0989 42.387C72.0133 42.4069 71.9349 42.4501 71.8725 42.5118C71.81 42.5736 71.7659 42.6515 71.7452 42.7369C71.7245 42.8223 71.7278 42.9117 71.755 42.9952C71.7821 43.0788 71.8319 43.1532 71.8989 43.21C73.9989 45.026 74.5559 48.233 74.6079 52.681C74.7289 63.181 68.7859 75.488 59.6399 81.167C56.8889 82.9553 53.7599 84.0796 50.4999 84.451C50.4184 84.4586 50.3403 84.487 50.273 84.5336C50.2057 84.5801 50.1516 84.6432 50.1158 84.7168C50.08 84.7904 50.0638 84.8719 50.0687 84.9536C50.0736 85.0353 50.0995 85.1143 50.1439 85.183C53.3829 90.463 63.1049 90.85 70.4219 86.317C80.5869 80.017 86.1929 67.082 86.0329 55.417C85.8853 51.2039 84.1403 47.2046 81.1519 44.231Z" fill="#FFDA71"/>
<path d="M47.957 49.66C47.8671 51.2485 47.4168 52.7957 46.6403 54.1844C45.8637 55.573 44.7813 56.7667 43.475 57.675C40.988 59.233 38.966 58.169 38.957 55.304C39.0491 53.7189 39.4997 52.1753 40.2748 50.7896C41.05 49.4038 42.1295 48.2121 43.432 47.304C45.915 45.747 47.942 46.8 47.957 49.66Z" fill="#FFDA71"/>
<path d="M288.154 247.3C269.883 235.411 225.626 210.236 216.989 206.036C200.564 198.049 119.689 158.836 93.759 161.196C81.068 162.35 69.38 168.39 58.396 174.849C32.58 190.026 21.671 198.272 1.88207e-08 218.941C-0.000262627 232.897 2.74842 246.717 8.08911 259.611C13.4298 272.506 21.2579 284.222 31.1265 294.09C40.995 303.959 52.7108 311.788 65.6048 317.129C78.4988 322.47 92.3186 325.219 106.275 325.219H314.815C315.389 316.61 312.563 287.492 312.015 284.307C309.637 270.46 305.606 262.374 295.527 252.586C293.202 250.646 290.738 248.879 288.154 247.3Z" fill="#67DD73"/>
<path d="M200.721 141.208C194.165 146.518 188.941 154.952 186.436 166.853L181.547 180.408C180.802 182.822 179.568 185.058 177.922 186.974L177.379 187.611C195.473 195.588 210.802 203.026 216.989 206.034C221.244 208.103 234.146 215.264 248.326 223.418L249.666 222.631C253.444 220.408 257.621 213.66 258.694 210.464C260.194 205.992 259.889 201.645 260.361 193.21C260.714 187.061 261.107 180.621 261.379 174.46C261.853 166.893 259.928 159.37 255.879 152.96C254.531 150.672 253.059 148.459 251.472 146.33C245.221 139.293 239.916 137.145 235.172 135.812C229.461 134.39 223.559 133.89 217.69 134.33C211.471 134.866 205.558 137.263 200.721 141.208Z" fill="#645D5C"/>
<path d="M190.351 169.776C189.657 168.883 188.691 168.241 187.599 167.946C186.685 167.6 185.672 167.62 184.772 168.001C183.872 168.383 183.153 169.097 182.766 169.994C181.457 172.479 180.988 175.32 181.428 178.094C181.616 179.569 182.131 180.983 182.934 182.234C183.647 183.292 184.593 184.174 185.699 184.811L185.984 184.973C185.839 185.962 185.748 186.957 185.712 187.956C185.651 189.086 185.665 190.22 185.754 191.348C200.105 197.834 211.784 203.501 216.989 206.032C219.301 207.156 224.167 209.784 230.404 213.258C232.83 212.336 235.009 210.865 236.769 208.958C237.445 208.258 238.353 207.185 239.123 206.202L239.386 206.309C240.578 206.765 241.859 206.943 243.13 206.829C244.607 206.664 246.029 206.172 247.292 205.388C249.723 203.98 251.632 201.822 252.736 199.239C253.188 198.372 253.289 197.365 253.017 196.426C252.745 195.487 252.122 194.688 251.277 194.197C250.264 193.461 249.017 193.121 247.771 193.24C246.937 192.375 246.982 191.008 246.629 189.854C246.389 189.076 245.954 188.372 245.365 187.809C240.813 185.231 239.247 174.709 238.5 171.138C238 168.738 238.119 163.999 238.119 160.489C238.119 160.489 238.119 160.353 238.119 160.174C238.123 159.936 238.048 159.704 237.905 159.513C237.763 159.323 237.561 159.186 237.331 159.123C236.663 158.935 235.691 159.977 235.691 159.977C229.044 164.477 221.347 166.248 213.149 165.984C212.596 165.972 212.249 165.703 212.38 165.072C212.986 163.334 213.778 161.666 214.742 160.098C214.8 159.991 214.823 159.869 214.808 159.748C214.793 159.627 214.74 159.514 214.658 159.424C214.575 159.335 214.467 159.273 214.347 159.249C214.228 159.224 214.104 159.238 213.993 159.287C209.337 161.34 195.16 167.53 190.351 169.776Z" fill="#FCE0CD"/>
<path d="M210.566 184.066C209.841 184.859 209.159 185.691 208.523 186.557L208.836 186.152C208.444 186.579 208.154 187.089 207.99 187.645C207.883 188.081 207.889 188.537 208.007 188.97C208.15 189.41 208.394 189.811 208.719 190.14C209.245 190.658 209.902 191.024 210.619 191.2C211.002 191.306 211.409 191.295 211.786 191.169C212.164 191.043 212.495 190.807 212.737 190.491C212.98 190.176 213.123 189.795 213.148 189.398C213.173 189.001 213.079 188.605 212.878 188.262C212.598 187.825 212.173 187.499 211.678 187.343C211.511 187.285 211.338 187.243 211.178 187.179L211.656 187.379C211.556 187.335 211.461 187.279 211.373 187.214L211.773 187.527C211.665 187.441 211.567 187.343 211.481 187.235L211.793 187.64C211.74 187.575 211.694 187.504 211.658 187.428L211.858 187.906C211.846 187.874 211.838 187.84 211.834 187.806L211.905 188.338C211.901 188.303 211.901 188.267 211.905 188.232L211.833 188.764C211.844 188.691 211.863 188.619 211.89 188.55L211.69 189.027C211.757 188.883 211.84 188.747 211.938 188.622L211.625 189.027C211.812 188.787 211.994 188.542 212.18 188.301L211.867 188.706C212.351 188.084 212.867 187.483 213.39 186.897C213.756 186.516 213.965 186.011 213.976 185.483C213.972 184.953 213.762 184.445 213.39 184.068C213.015 183.693 212.506 183.482 211.976 183.482C211.446 183.482 210.937 183.693 210.562 184.068L210.566 184.066Z" fill="#EFC0A0"/>
<path d="M230.359 183.515C230.177 183.508 229.997 183.493 229.816 183.469L230.348 183.541C229.688 183.444 229.043 183.263 228.428 183.004L228.906 183.204C228.318 182.961 227.762 182.646 227.251 182.266L227.656 182.578C227.366 182.359 227.103 182.105 226.873 181.823L227.186 182.228C227.151 182.181 227.117 182.135 227.086 182.087C226.812 181.646 226.387 181.32 225.891 181.168C225.371 181.03 224.817 181.101 224.35 181.368C223.9 181.634 223.571 182.064 223.431 182.568C223.358 182.825 223.339 183.094 223.373 183.359C223.407 183.624 223.495 183.879 223.631 184.109C224.369 185.138 225.36 185.959 226.509 186.491C227.709 187.094 229.02 187.443 230.361 187.517C230.89 187.513 231.397 187.301 231.771 186.927C232.145 186.553 232.357 186.046 232.361 185.517C232.35 184.99 232.136 184.488 231.763 184.115C231.39 183.742 230.888 183.528 230.361 183.517L230.359 183.515Z" fill="#645D5C"/>
<path d="M201.331 175.081C203.021 176.539 205.153 177.386 207.383 177.486C207.779 177.486 208.165 177.369 208.494 177.149C208.823 176.93 209.08 176.617 209.231 176.252C209.383 175.886 209.422 175.484 209.345 175.096C209.268 174.708 209.078 174.352 208.798 174.072C208.411 173.715 207.909 173.507 207.383 173.486C207.202 173.473 207.021 173.456 206.84 173.433L207.371 173.504C206.597 173.4 205.84 173.195 205.12 172.893L205.598 173.093C205.054 172.863 204.542 172.566 204.072 172.208L204.477 172.521C204.368 172.434 204.262 172.345 204.159 172.251C203.778 171.885 203.273 171.676 202.745 171.666C202.215 171.67 201.708 171.88 201.331 172.251C201.145 172.437 200.998 172.657 200.897 172.9C200.797 173.143 200.745 173.403 200.745 173.666C200.745 173.928 200.797 174.188 200.897 174.431C200.998 174.674 201.145 174.895 201.331 175.081Z" fill="#645D5C"/>
</g>
<defs>
<clipPath id="clip0_512_6">
<rect width="366.221" height="325.219" fill="white"/>
</clipPath>
</defs>
</svg>
