<svg width="248" height="305" viewBox="0 0 248 305" fill="none" xmlns="http://www.w3.org/2000/svg">
<g clip-path="url(#clip0_514_20)">
<path d="M151.94 46.736C152.853 45.9461 154.034 45.5364 155.24 45.591C155.995 45.5588 156.744 45.7278 157.412 46.0806C158.08 46.4334 158.642 46.9575 159.04 47.5989C160.328 49.7319 160.274 53.657 159.405 56.089C158.701 58.4411 157.312 60.5301 155.415 62.089C154.902 62.5658 154.293 62.9287 153.63 63.154C152.966 63.3792 152.263 63.4617 151.565 63.396C151.085 64.933 150.392 66.347 150.174 67.009C149.204 69.644 143.901 78.7899 137.154 82.5549C137.227 84.2847 137.416 86.0075 137.72 87.7119C138.055 89.6219 137.95 91.3289 140.606 92.2879C140.781 92.3519 148.313 95.9349 148.582 96.0459C148.582 96.0459 148.094 116.256 122.538 116.256C96.9821 116.256 96.5381 96.4559 96.5381 96.4559C97.0491 96.2809 105.449 92.356 105.624 92.289C108.28 91.33 108.175 89.623 108.51 87.713C108.833 85.9776 109.024 84.2202 109.082 82.4559C106.107 80.7429 103.482 78.4841 101.344 75.7979C98.3209 72.146 96.079 67.9128 94.7571 63.36C94.0537 63.4751 93.334 63.4426 92.6438 63.2646C91.9536 63.0866 91.308 62.7669 90.7481 62.326C88.8229 60.6828 87.4186 58.514 86.7071 56.0849C85.8411 53.6549 85.7861 49.728 87.0771 47.597C87.4754 46.9551 88.0372 46.4307 88.7049 46.0775C89.3727 45.7243 90.1223 45.555 90.8771 45.587C92.0819 45.5326 93.2615 45.944 94.1711 46.736C94.1711 46.736 87.6441 16.7 123.2 16.7C158.978 16.7 151.94 46.736 151.94 46.736Z" fill="#FCE0CD"/>
<path d="M117.443 0.399903C111.956 1.16866 106.745 3.28355 102.275 6.5559C97.9479 9.64043 94.3937 13.6847 91.8904 18.372C89.3872 23.0593 88.0029 28.2624 87.8459 33.5739C87.7333 37.7089 88.2953 41.8347 89.5099 45.7889C89.9548 45.6691 90.4123 45.602 90.8729 45.5889C92.0777 45.5345 93.2573 45.9459 94.1669 46.7379L98.6549 42.0379C102.155 38.1379 108.328 32.2639 112.661 29.9909C112.814 29.9307 112.979 29.9089 113.142 29.9276C113.305 29.9462 113.461 30.0048 113.596 30.0979C113.731 30.1911 113.841 30.3161 113.916 30.4619C113.992 30.6077 114.03 30.7698 114.028 30.9339C114.117 31.7869 114.134 32.4459 114.203 33.1409C114.216 33.3351 114.279 33.5227 114.385 33.6854C114.492 33.8481 114.639 33.9804 114.812 34.0695C114.985 34.1586 115.178 34.2014 115.373 34.1938C115.567 34.1861 115.756 34.1283 115.922 34.0259C119.016 32.3079 125.806 27.4259 128.233 27.2589C130.366 27.0859 132.508 27.4686 134.45 28.3699C136.222 29.0943 137.865 30.1003 139.316 31.3489C142.951 34.2669 145.827 38.0196 147.7 42.2879L151.939 46.7359C152.852 45.9461 154.033 45.5363 155.239 45.5909C155.73 45.6034 156.217 45.678 156.689 45.8129C157.898 41.85 158.446 37.715 158.312 33.5739C157.812 21.9849 152.992 14.5669 147.347 9.5279L144.22 6.7389L142.532 5.6479C136.753 1.87097 129.979 -0.0956028 123.076 -9.73181e-05C121.191 -0.00384383 119.308 0.129844 117.443 0.399903Z" fill="#7A7473"/>
<path d="M80.72 101.35C86.557 98.4499 92.614 95.8559 98.606 93.2209L99.192 93.6209C104.539 97.3089 112.859 101.373 122.443 101.398C131.179 101.42 141.569 97.5979 145.843 93.9869L146.571 93.3709C153.916 96.5979 161.348 99.771 168.348 103.535C183.8 111.835 185.59 132.707 189.462 147.951C191.267 155.06 191.531 156.981 192.472 159.991C195.672 171.357 204.511 188.209 210.155 196.611L211.295 198.444C210.9 198.435 210.504 198.427 210.108 198.422C207.013 198.088 204.422 197.565 202.834 198.756C200.555 199.656 197.42 202.916 195.894 204.944L195.453 205.53C194.538 206.913 193.716 208.606 194.308 210.378C191.276 208.986 187.959 207.441 187.959 207.441C182.181 201.441 171.317 185.641 165.681 175.63L165.463 175.243C165.591 182.089 165.67 187.353 165.647 188.924C165.483 200.259 165.792 199.691 166.625 215.441L166.695 216.767C162.71 218.236 150.586 218.698 144.173 219.06C127.673 219.992 85.373 219.637 80.708 219.193C80.4013 219.111 80.1343 218.921 79.9558 218.659C79.7773 218.396 79.6993 218.078 79.736 217.763C79.663 215.263 80.249 208.908 80.07 199.997C79.938 193.433 79.853 185.845 79.786 177.989C75.261 185.908 69.726 195.213 64.161 203.031C62.533 205.319 60.901 207.48 59.292 209.441L52.357 213.741L52.81 212.385C53.402 210.613 52.579 208.919 51.665 207.537L51.224 206.95C49.698 204.923 46.563 201.662 44.284 200.763C42.696 199.572 40.105 200.094 37.01 200.429C36.058 200.443 35.103 200.461 34.167 200.511C34.98 199.177 35.622 198.111 35.622 198.111C41.893 188.831 49.157 171.352 52.359 159.986C53.013 156.976 53.559 155.055 55.369 147.946C59.24 132.702 61.03 111.829 76.483 103.53C77.8777 102.785 79.29 102.058 80.72 101.35Z" fill="#67DD73"/>
<path d="M103.752 219.63C92.339 219.574 82.785 219.394 80.705 219.196C80.5961 219.183 80.49 219.152 80.391 219.104L80.178 219.167C61.658 224.572 44.856 231.737 26.751 238.373C20.9719 240.524 15.5216 243.472 10.558 247.131C7.62341 249.225 5.17248 251.924 3.37088 255.047C1.56927 258.17 0.458976 261.643 0.115029 265.231C-0.662971 274.285 2.50703 282.831 9.83603 286.562C14.401 288.884 20.256 290.202 26.156 290.894C54.217 294.187 87.874 294.616 109.419 294.219C109.673 294.215 109.916 294.113 110.097 293.934C110.278 293.756 110.383 293.514 110.39 293.26C110.49 290.683 110.658 287.496 110.714 286.183C117.325 286.183 131.422 286.07 135.784 286.07C139.133 286.163 191.541 287.004 216.367 285.47C227.784 284.77 241.085 284.376 245.89 273.996C249.61 265.961 246.59 254.271 240.247 247.623C236.188 243.372 229.447 238.897 220.77 235.867C204.694 230.251 181.939 222.71 165.741 217.057C161.041 218.297 150.135 218.721 144.17 219.057C135.025 219.58 117.95 219.7 103.752 219.63Z" fill="#A0A0A0"/>
<path d="M139.259 273.5C138.827 273.247 138.385 272.988 137.933 272.723C137.066 272.215 136.247 271.684 135.457 271.167C135.393 271.125 135.341 271.068 135.304 271.002C135.267 270.935 135.246 270.86 135.244 270.784C135.102 266.259 134.964 261.684 134.868 258.498C134.866 258.415 134.841 258.333 134.796 258.263C134.752 258.192 134.689 258.135 134.614 258.098C132.369 256.923 130.429 255.362 127.684 253.822C122.004 250.622 118.191 254.18 113.323 257.294C110.269 259.237 108.661 260.16 106.144 261.725C106.06 261.778 105.994 261.855 105.956 261.946C105.918 262.038 105.909 262.139 105.931 262.236C105.953 262.332 106.005 262.42 106.079 262.486C106.153 262.552 106.245 262.593 106.344 262.604C107.902 262.762 109.448 262.921 110.981 263.08C111.098 263.091 111.206 263.145 111.285 263.231C111.364 263.318 111.407 263.431 111.407 263.548C111.388 269.817 110.707 285.338 110.451 291.655C110.446 291.78 110.491 291.902 110.576 291.994C110.66 292.085 110.778 292.14 110.903 292.145C112.003 292.201 112.735 292.245 112.735 292.245C117.69 292.529 126.105 292.832 130.626 294.294L148.026 299.921C151.881 301.168 157.787 303.858 161.293 300.301C162.154 299.593 162.725 298.593 162.899 297.492C163.177 288.992 155.799 283.017 148.588 278.898C145.537 277.156 142.69 275.508 139.259 273.5Z" fill="white"/>
<path d="M159.237 290.9C160.171 292.518 160.734 294.323 160.883 296.185C160.965 296.56 160.962 296.949 160.876 297.323C160.789 297.697 160.621 298.048 160.383 298.349C159.926 298.946 159.331 299.422 158.648 299.737C155.968 300.847 152.548 299.359 150.015 298.484C145.951 297.084 141.836 295.816 137.745 294.493C134.03 293.11 130.203 292.052 126.305 291.33C122.199 290.749 118.057 290.6 113.921 290.367C111.349 290.222 111.358 294.222 113.921 294.367C117.821 294.587 121.753 294.675 125.621 295.241C130.141 295.903 134.467 297.634 138.796 299.034C142.986 300.389 147.152 301.861 151.365 303.141C154.857 304.202 158.918 304.756 161.988 302.336C162.958 301.646 163.734 300.717 164.241 299.64C164.747 298.562 164.968 297.372 164.881 296.185C164.704 293.619 163.955 291.124 162.689 288.885C161.447 286.629 157.989 288.645 159.235 290.904L159.237 290.9Z" fill="white"/>
<path d="M77.289 131.444C77.789 152.434 77.647 173.436 77.969 194.429C78.064 200.654 78.169 206.869 77.922 213.093C77.822 215.667 81.822 215.663 81.922 213.093C82.351 202.176 81.903 191.227 81.803 180.305C81.703 169.2 81.649 158.096 81.532 146.992C81.478 141.809 81.412 136.626 81.289 131.444C81.228 128.875 77.228 128.865 77.289 131.444Z" fill="white"/>
<path d="M152.661 98.223C156.023 99.717 159.372 101.24 162.672 102.868C165.426 104.096 168.059 105.579 170.536 107.298C174.238 110.258 177.186 114.055 179.136 118.375C183.436 127.24 184.822 137.207 187.089 146.703C188.189 151.303 189.136 156.003 190.537 160.525C191.297 162.976 195.159 161.931 194.394 159.462C193.112 155.327 192.279 151.032 191.236 146.833C190.036 142.007 189.105 137.118 187.943 132.282C185.597 122.521 182.235 112.009 174.343 105.261C171.774 103.192 168.963 101.443 165.972 100.053C162.26 98.183 158.472 96.453 154.679 94.769C154.217 94.5173 153.677 94.4514 153.169 94.5849C152.66 94.7183 152.222 95.041 151.943 95.487C151.679 95.9458 151.607 96.49 151.741 97.0019C151.875 97.5138 152.206 97.9525 152.661 98.223Z" fill="white"/>
<path d="M90.144 94.7689C86.637 96.3269 83.144 97.9179 79.706 99.6259C76.96 100.876 74.3403 102.386 71.883 104.137C67.9205 107.256 64.7185 111.236 62.519 115.774C57.866 125.025 56.307 135.363 53.947 145.338C52.83 150.059 51.462 154.721 50.427 159.462C49.88 161.971 53.735 163.043 54.284 160.525C55.177 156.435 56.31 152.398 57.331 148.339C58.531 143.585 59.452 138.769 60.58 133.999C62.764 124.763 65.671 114.777 73.067 108.299C75.4539 106.378 78.0748 104.768 80.867 103.507C84.579 101.637 88.362 99.9069 92.16 98.2229C92.6153 97.9528 92.9458 97.5141 93.08 97.002C93.2142 96.49 93.1413 95.9456 92.877 95.4869C92.6007 95.0385 92.1623 94.7137 91.6528 94.5801C91.1433 94.4464 90.6019 94.514 90.141 94.7689H90.144Z" fill="white"/>
<path d="M60.7001 210.859C68.7301 201.029 75.2301 189.98 81.5151 178.987C82.7951 176.749 79.3401 174.731 78.0611 176.968C71.9541 187.651 65.6761 198.477 57.8721 208.03C57.5107 208.412 57.3093 208.919 57.3093 209.445C57.3093 209.971 57.5107 210.477 57.8721 210.859C58.2491 211.23 58.757 211.439 59.2861 211.439C59.8152 211.439 60.3231 211.23 60.7001 210.859Z" fill="white"/>
<path d="M50.4271 159.462C48.4958 166.128 46.1257 172.659 43.3321 179.012C40.7418 185.32 37.5821 191.378 33.8921 197.112C32.4531 199.255 35.9171 201.259 37.3461 199.131C41.1065 193.284 44.3201 187.103 46.9461 180.667C49.8274 174.12 52.2792 167.392 54.2861 160.527C54.9861 158.047 51.1311 156.988 50.4291 159.464L50.4271 159.462Z" fill="white"/>
<path d="M163.951 176.643C167.364 182.687 171.176 188.515 175.144 194.207C178.563 199.376 182.374 204.274 186.544 208.859C188.327 210.722 191.153 207.891 189.373 206.03C185.35 201.605 181.677 196.874 178.386 191.88C174.498 186.285 170.759 180.559 167.408 174.624C166.142 172.382 162.685 174.396 163.954 176.643H163.951Z" fill="white"/>
<path d="M190.54 160.525C192.619 167.33 195.31 173.932 198.581 180.251C201.482 186.249 204.771 192.052 208.425 197.624C209.849 199.753 213.316 197.752 211.879 195.605C208.295 190.142 205.065 184.456 202.208 178.58C199.024 172.46 196.41 166.06 194.397 159.462C193.697 156.991 189.833 158.041 190.54 160.525Z" fill="white"/>
<path d="M140.089 256.116L163.214 254.716L200.032 252.484L208.432 251.976C210.989 251.821 211.007 247.819 208.432 247.976L185.306 249.376L148.489 251.607L140.089 252.116C137.531 252.271 137.514 256.272 140.089 256.116Z" fill="#8E8E8E"/>
<path d="M120.469 273.279C121.405 272.715 122.332 272.135 123.261 271.561C123.837 271.205 124.408 270.835 125.011 270.526C125.144 270.458 125.279 270.392 125.411 270.326C125.469 270.299 125.721 270.202 125.525 270.277C125.807 270.168 126.094 270.075 126.386 269.996C126.63 269.93 126.877 269.885 127.126 269.836C127.426 269.777 126.836 269.836 127.135 269.836C127.252 269.836 127.372 269.818 127.49 269.814C127.723 269.806 127.957 269.81 128.19 269.826C128.39 269.839 128.543 269.864 128.256 269.819C128.369 269.837 128.481 269.856 128.593 269.878C129.044 269.969 129.487 270.096 129.918 270.256C129.963 270.273 130.403 270.451 130.169 270.351C129.969 270.263 130.303 270.414 130.337 270.43C130.585 270.545 130.827 270.669 131.068 270.796C131.526 271.064 132.072 271.139 132.585 271.004C133.098 270.869 133.537 270.536 133.804 270.078C134.072 269.62 134.147 269.075 134.012 268.562C133.878 268.048 133.545 267.61 133.087 267.342C130.861 266.034 128.237 265.572 125.698 266.042C123.03 266.616 120.745 268.43 118.45 269.815C118.223 269.947 118.025 270.123 117.866 270.333C117.707 270.542 117.591 270.78 117.524 271.034C117.458 271.288 117.442 271.553 117.477 271.813C117.513 272.074 117.599 272.324 117.732 272.551C117.864 272.778 118.04 272.976 118.249 273.135C118.459 273.294 118.697 273.41 118.951 273.477C119.205 273.543 119.47 273.559 119.73 273.524C119.99 273.488 120.241 273.401 120.468 273.269L120.469 273.279Z" fill="white"/>
<path d="M100.408 260.016C80.195 258.029 59.959 256.261 39.781 253.94C39.2515 253.943 38.7447 254.155 38.3703 254.529C37.9959 254.904 37.7842 255.41 37.781 255.94C37.793 256.467 38.0075 256.968 38.38 257.341C38.7525 257.713 39.2543 257.928 39.781 257.94C59.959 260.261 80.195 262.029 100.408 264.016C100.937 264.012 101.444 263.8 101.818 263.426C102.192 263.052 102.404 262.545 102.408 262.016C102.397 261.489 102.183 260.987 101.81 260.614C101.437 260.241 100.935 260.027 100.408 260.016Z" fill="#8E8E8E"/>
<path d="M235.66 230.9C234.984 230.362 234.23 229.771 233.474 229.136C232.882 228.636 232.193 228.042 231.452 227.387L232.745 227.726C234.511 228.364 235.975 227.799 236.398 226.944C236.714 226.418 236.856 225.806 236.804 225.195C236.752 224.583 236.508 224.004 236.108 223.539C234.098 221.694 230.929 218.161 228.756 216.316L226.809 214.476L227.359 214.684C228.226 215.073 229.163 215.283 230.113 215.303C231.063 215.323 232.008 215.152 232.891 214.8C233.488 214.486 233.958 213.976 234.222 213.355C234.486 212.735 234.528 212.042 234.341 211.394C234.023 210.353 232.541 209.11 230.201 207.609C229.457 207.133 226.545 204.715 225.816 204.216C222.764 202.127 221.048 200.628 218.423 199.529C216.083 198.549 213.077 198.469 210.105 198.429C207.01 198.095 204.419 197.572 202.831 198.763C200.552 199.663 197.417 202.923 195.891 204.951L195.45 205.537C194.535 206.92 193.713 208.613 194.305 210.385L194.871 212.08C197.961 219.274 198.823 221.843 203.666 228.211C205.392 230.482 210.383 234.211 212.616 235.931C214.688 237.531 216.636 238.61 218.795 240.095C220.535 241.295 222.335 241.365 223.364 239.83C223.964 238.93 223.815 238.04 223.324 236.472C224.384 237.404 225.49 238.344 226.669 239.314C227.123 239.671 227.632 239.953 228.176 240.148C228.621 240.283 229.09 240.315 229.549 240.243C230.008 240.171 230.445 239.997 230.827 239.733C231.296 239.456 231.663 239.035 231.874 238.533C232.085 238.031 232.129 237.475 232 236.946C231.646 236.006 231.058 235.173 230.292 234.524L232.518 235.889C233.21 236.319 234.029 236.498 234.837 236.396C235.645 236.294 236.394 235.917 236.957 235.329C237.374 234.75 237.553 234.033 237.457 233.326C237.361 232.619 236.997 231.976 236.441 231.529C236.194 231.327 235.933 231.118 235.66 230.9Z" fill="#FCE0CD"/>
<path d="M222.808 222.143C225.444 224.682 228.144 227.155 230.908 229.562C231.093 229.753 231.313 229.905 231.557 230.01C231.801 230.115 232.064 230.17 232.329 230.172C232.595 230.175 232.858 230.124 233.104 230.024C233.35 229.923 233.573 229.775 233.761 229.587C233.949 229.399 234.097 229.176 234.198 228.93C234.298 228.684 234.349 228.421 234.347 228.155C234.344 227.89 234.289 227.627 234.184 227.383C234.079 227.139 233.927 226.918 233.736 226.734C230.975 224.334 228.275 221.861 225.636 219.315C225.452 219.124 225.231 218.972 224.987 218.867C224.743 218.762 224.48 218.707 224.215 218.704C223.949 218.702 223.686 218.753 223.44 218.853C223.194 218.954 222.971 219.102 222.783 219.29C222.596 219.478 222.447 219.701 222.346 219.947C222.246 220.193 222.195 220.456 222.198 220.722C222.2 220.987 222.255 221.25 222.36 221.494C222.465 221.738 222.617 221.958 222.808 222.143Z" fill="#F9CBAC"/>
<path d="M224.738 235.054C222.147 232.774 219.666 230.378 217.296 227.867C216.919 227.496 216.411 227.289 215.882 227.289C215.353 227.289 214.845 227.496 214.468 227.867C214.103 228.247 213.898 228.754 213.898 229.282C213.898 229.809 214.103 230.316 214.468 230.696C216.84 233.202 219.321 235.597 221.91 237.882C222.095 238.073 222.315 238.225 222.559 238.33C222.803 238.435 223.066 238.49 223.331 238.493C223.597 238.495 223.86 238.444 224.106 238.344C224.352 238.243 224.575 238.095 224.763 237.907C224.951 237.719 225.099 237.496 225.2 237.25C225.3 237.004 225.351 236.741 225.349 236.475C225.346 236.21 225.291 235.947 225.186 235.703C225.081 235.459 224.929 235.239 224.738 235.054Z" fill="#F9CBAC"/>
<path d="M218.533 226.353C221.899 229.634 225.508 232.653 228.873 235.937C229.248 236.312 229.757 236.523 230.287 236.523C230.818 236.523 231.326 236.313 231.702 235.938C232.077 235.563 232.288 235.054 232.288 234.523C232.288 233.993 232.077 233.484 231.702 233.109C228.337 229.828 224.727 226.809 221.361 223.524C220.986 223.149 220.477 222.938 219.947 222.938C219.416 222.939 218.908 223.149 218.533 223.525C218.158 223.9 217.947 224.408 217.947 224.939C217.947 225.469 218.158 225.978 218.533 226.353Z" fill="#F9CBAC"/>
<path d="M215.614 229.6C219.56 226.067 223.593 222.636 227.714 219.307C228.087 218.931 228.297 218.423 228.297 217.893C228.297 217.363 228.087 216.855 227.714 216.479C227.332 216.118 226.826 215.916 226.299 215.916C225.773 215.916 225.267 216.118 224.885 216.479C220.765 219.807 216.732 223.238 212.785 226.772C212.413 227.149 212.204 227.657 212.204 228.186C212.204 228.715 212.413 229.223 212.785 229.6C213.166 229.964 213.672 230.168 214.199 230.168C214.726 230.168 215.233 229.964 215.614 229.6Z" fill="#F9CBAC"/>
<path d="M11.4521 232.907C12.1281 232.369 12.8821 231.778 13.6381 231.143C14.2301 230.643 14.9191 230.049 15.6601 229.395L14.3671 229.733C12.6011 230.371 11.1371 229.807 10.7141 228.952C10.398 228.426 10.2559 227.814 10.308 227.203C10.3601 226.591 10.6036 226.012 11.0041 225.547C13.0141 223.701 16.1831 220.168 18.3561 218.324L20.3031 216.484L19.7531 216.692C18.8856 217.08 17.949 217.291 16.9987 217.311C16.0485 217.33 15.1039 217.159 14.2211 216.807C13.6241 216.493 13.1538 215.983 12.8896 215.363C12.6254 214.742 12.5835 214.05 12.7711 213.402C13.0891 212.361 14.5711 211.117 16.9111 209.617C17.6551 209.14 20.5671 206.723 21.2961 206.224C24.3481 204.135 26.0641 202.636 28.6891 201.537C31.0291 200.557 34.0351 200.476 37.0071 200.432C40.1021 200.097 42.6931 199.575 44.2811 200.766C46.5601 201.666 49.6951 204.926 51.2211 206.953L51.6621 207.54C52.5761 208.922 53.3991 210.616 52.8071 212.388L52.2411 214.083C49.1511 221.276 48.2891 223.846 43.4411 230.214C41.7151 232.485 36.7241 236.214 34.4911 237.934C32.4191 239.529 30.4711 240.612 28.3121 242.098C26.5721 243.298 24.7721 243.367 23.7431 241.833C23.1431 240.933 23.2921 240.043 23.7831 238.475C22.7231 239.406 21.6171 240.346 20.4381 241.317C19.9837 241.674 19.4749 241.956 18.9311 242.151C18.4863 242.285 18.017 242.317 17.5581 242.245C17.0992 242.173 16.6624 241.999 16.2801 241.735C15.813 241.457 15.4475 241.037 15.2372 240.536C15.0269 240.035 14.9831 239.48 15.1121 238.952C15.466 238.013 16.0539 237.179 16.8201 236.53L14.6001 237.9C13.9081 238.33 13.0895 238.508 12.2813 238.406C11.4732 238.305 10.7247 237.928 10.1611 237.34C9.74435 236.761 9.56559 236.044 9.66158 235.337C9.75758 234.63 10.121 233.987 10.6771 233.54C10.9181 233.333 11.1791 233.125 11.4521 232.907Z" fill="#FCE0CD"/>
<path d="M21.4759 221.321C18.4759 224.21 15.4089 227.048 12.2239 229.729C11.8506 230.105 11.6411 230.613 11.6411 231.143C11.6411 231.673 11.8506 232.182 12.2239 232.558C12.6056 232.92 13.1117 233.122 13.6379 233.122C14.1641 233.122 14.6702 232.92 15.0519 232.558C18.2379 229.876 21.3059 227.038 24.3039 224.15C24.4896 223.964 24.637 223.744 24.7376 223.501C24.8381 223.258 24.8899 222.998 24.8899 222.736C24.89 222.473 24.8383 222.213 24.7378 221.97C24.6374 221.728 24.4901 221.507 24.3044 221.321C24.1187 221.136 23.8982 220.988 23.6556 220.888C23.413 220.787 23.1529 220.735 22.8902 220.735C22.6276 220.735 22.3675 220.787 22.1248 220.887C21.8822 220.988 21.6616 221.135 21.4759 221.321Z" fill="#F9CBAC"/>
<path d="M24.8 240.24C27.5333 237.854 30.1476 235.341 32.643 232.702C33.0073 232.325 33.2089 231.82 33.2043 231.295C33.1997 230.771 32.9894 230.269 32.6186 229.898C32.2478 229.527 31.7461 229.317 31.2218 229.313C30.6974 229.308 30.1922 229.51 29.815 229.874C27.3203 232.51 24.7056 235.023 21.971 237.412C21.5987 237.788 21.3899 238.296 21.3899 238.826C21.3899 239.355 21.5987 239.863 21.971 240.24C22.3521 240.604 22.8587 240.807 23.3855 240.807C23.9123 240.807 24.4188 240.604 24.8 240.24Z" fill="#F9CBAC"/>
<path d="M25.7509 225.531C22.9249 228.286 19.9219 230.849 17.0739 233.58C16.7033 233.958 16.4956 234.465 16.4956 234.994C16.4956 235.524 16.7033 236.031 17.0739 236.409C17.454 236.774 17.9607 236.979 18.4879 236.979C19.0152 236.979 19.5219 236.774 19.9019 236.409C22.7499 233.677 25.7529 231.114 28.5789 228.359C28.7699 228.174 28.9223 227.954 29.0271 227.71C29.1319 227.466 29.1871 227.203 29.1894 226.938C29.1917 226.672 29.1411 226.409 29.0406 226.163C28.94 225.917 28.7915 225.694 28.6037 225.506C28.4159 225.318 28.1926 225.17 27.9468 225.069C27.701 224.969 27.4377 224.918 27.1721 224.92C26.9066 224.923 26.6441 224.978 26.4001 225.083C26.1561 225.188 25.9354 225.34 25.7509 225.531Z" fill="#F9CBAC"/>
<path d="M34.3259 228.775C30.3799 225.242 26.3466 221.811 22.2259 218.482C21.8448 218.118 21.3382 217.916 20.8114 217.916C20.2846 217.916 19.7781 218.118 19.3969 218.482C19.0273 218.86 18.8203 219.368 18.8203 219.896C18.8203 220.425 19.0273 220.932 19.3969 221.31C23.5169 224.638 27.5503 228.069 31.4969 231.603C31.6814 231.794 31.9021 231.946 32.1461 232.051C32.3901 232.156 32.6526 232.211 32.9181 232.214C33.1837 232.216 33.4471 232.165 33.6929 232.065C33.9386 231.964 34.1619 231.816 34.3497 231.628C34.5375 231.44 34.686 231.217 34.7866 230.971C34.8872 230.725 34.9378 230.462 34.9354 230.196C34.9331 229.931 34.878 229.668 34.7731 229.424C34.6683 229.18 34.517 228.96 34.3259 228.775Z" fill="#F9CBAC"/>
<path d="M120.692 72.7569C121.119 73.153 121.622 73.4572 122.171 73.6507C122.72 73.8442 123.302 73.9229 123.883 73.8819C125.519 73.8819 126.988 73.6629 127.841 72.5439C128.896 71.1609 128.703 66.9819 124.167 66.9819C120.021 66.9819 119.383 71.3579 120.692 72.7569Z" fill="#EFC0A0"/>
<path d="M122.715 57.2401C122.978 58.1918 123.189 59.1573 123.347 60.1321L123.275 59.6011C123.294 59.7336 123.298 59.8678 123.286 60.0011L123.358 59.4691C123.349 59.5303 123.334 59.5906 123.314 59.6491L123.514 59.1711C123.497 59.2116 123.476 59.2505 123.451 59.2871L123.764 58.8821C123.736 58.9165 123.704 58.9477 123.669 58.9751L124.074 58.6621C124.001 58.7079 123.924 58.7484 123.845 58.7831L124.323 58.5831C124.199 58.6358 124.07 58.6734 123.937 58.6951L124.468 58.6241C124.348 58.6381 124.226 58.6381 124.106 58.6241L124.638 58.6961C124.501 58.6771 124.367 58.6441 124.23 58.6251C123.971 58.542 123.695 58.5295 123.43 58.5891C123.165 58.6009 122.908 58.683 122.686 58.8271C122.459 58.9596 122.261 59.1355 122.102 59.3447C121.943 59.5539 121.827 59.7923 121.76 60.0464C121.694 60.3005 121.678 60.5652 121.713 60.8254C121.749 61.0857 121.836 61.3363 121.968 61.5631C122.095 61.7897 122.267 61.9881 122.473 62.1461C122.68 62.3041 122.916 62.4184 123.168 62.4821C123.525 62.5301 123.868 62.6201 124.234 62.6361C124.802 62.6374 125.362 62.5001 125.865 62.2361C126.192 62.0818 126.481 61.8573 126.711 61.5787C126.942 61.3001 127.108 60.9742 127.198 60.6241C127.317 60.0706 127.313 59.4975 127.184 58.9461C127.027 58.0141 126.811 57.0911 126.572 56.1771C126.503 55.9235 126.384 55.686 126.223 55.4783C126.061 55.2706 125.86 55.0967 125.632 54.9667C125.403 54.8366 125.151 54.753 124.89 54.7204C124.629 54.6879 124.365 54.7072 124.111 54.7771C123.608 54.9177 123.178 55.2468 122.911 55.6961C122.65 56.1653 122.578 56.7168 122.711 57.2371L122.715 57.2401Z" fill="#EFC0A0"/>
<path d="M134.2 52.5999C135.544 52.6459 136.893 52.5999 138.236 52.5339C138.764 52.523 139.269 52.3138 139.65 51.9479C139.836 51.7622 139.983 51.5417 140.084 51.299C140.184 51.0563 140.236 50.7961 140.236 50.5334C140.236 50.2707 140.184 50.0106 140.084 49.7679C139.983 49.5252 139.836 49.3047 139.65 49.1189C139.275 48.7442 138.766 48.5338 138.236 48.5339C136.893 48.6009 135.544 48.6459 134.2 48.5999C133.67 48.5999 133.161 48.8106 132.786 49.1857C132.411 49.5608 132.2 50.0695 132.2 50.5999C132.2 51.1304 132.411 51.6391 132.786 52.0141C133.161 52.3892 133.67 52.5999 134.2 52.5999Z" fill="#645D5C"/>
<path d="M108.944 52.6161C110.318 52.6411 111.694 52.596 113.067 52.55C113.596 52.5406 114.101 52.3312 114.481 51.9641C114.761 51.6843 114.951 51.328 115.028 50.9401C115.105 50.5522 115.066 50.1501 114.914 49.7847C114.763 49.4193 114.507 49.107 114.178 48.8872C113.849 48.6675 113.463 48.5501 113.067 48.55C111.694 48.596 110.318 48.6411 108.944 48.6161C108.414 48.6161 107.905 48.8268 107.53 49.2018C107.155 49.5769 106.944 50.0856 106.944 50.6161C106.944 51.1465 107.155 51.6552 107.53 52.0303C107.905 52.4053 108.414 52.6161 108.944 52.6161Z" fill="#645D5C"/>
<path d="M168.337 210.293C168.109 206.385 167.811 202.478 167.676 198.566C167.56 195.235 167.63 191.907 167.648 188.577C167.667 184.967 167.57 181.355 167.504 177.747C167.28 165.45 167.013 153.153 166.704 140.857C166.596 136.442 166.504 132.025 166.348 127.611C166.259 125.044 162.259 125.032 162.348 127.611C162.689 137.435 162.863 147.268 163.082 157.095C163.31 167.348 163.619 177.607 163.652 187.863C163.662 191.081 163.566 194.296 163.652 197.514C163.761 201.778 164.097 206.036 164.345 210.293C164.494 212.851 168.495 212.868 168.345 210.293H168.337Z" fill="white"/>
</g>
<defs>
<clipPath id="clip0_514_20">
<rect width="247.511" height="304.05" fill="white"/>
</clipPath>
</defs>
</svg>
